<svg version="1.1" viewBox="0 0 152.81 104.01" xml:space="preserve" xmlns="http://www.w3.org/2000/svg">
	<g transform="translate(-83.59 -108)" fill="#fff">
		<path d="m102.33 153.58c-0.06-1.98-0.37-3.75-0.95-5.29-0.57-1.55-1.31-2.98-2.2-4.28-0.89-1.31-1.89-2.51-3.01-3.62-1.12-1.1-2.26-2.19-3.42-3.25s-2.29-2.14-3.38-3.25c-1.09-1.1-2.07-2.3-2.93-3.59s-1.55-2.71-2.07-4.26-0.78-3.3-0.78-5.25c0-2.07 0.29-3.89 0.86-5.47s1.33-2.91 2.26-3.98c0.93-1.08 1.99-1.89 3.19-2.45 1.19-0.56 2.4-0.85 3.64-0.88 1.95-0.06 3.61 0.39 4.97 1.36 1.36 0.96 2.39 2.22 3.08 3.79 0.69 1.56 1.03 3.33 1.01 5.29-0.02 1.97-0.41 3.91-1.18 5.83-0.09 0.2-0.2 0.26-0.34 0.17s-0.14-0.23 0-0.43c0.69-1.78 1.04-3.62 1.05-5.51s-0.3-3.59-0.95-5.1-1.62-2.69-2.93-3.55-2.91-1.13-4.8-0.82c-0.95 0.14-1.87 0.51-2.78 1.1-0.9 0.59-1.71 1.38-2.41 2.39-0.7 1-1.27 2.2-1.7 3.57-0.43 1.38-0.62 2.94-0.56 4.69 0.03 1.72 0.33 3.27 0.9 4.65s1.31 2.66 2.22 3.85c0.9 1.19 1.93 2.32 3.08 3.4s2.32 2.17 3.51 3.27c1.19 1.11 2.36 2.25 3.51 3.44s2.17 2.5 3.08 3.92c0.9 1.42 1.64 2.99 2.2 4.71s0.87 3.66 0.92 5.81c1.38 0 2.84-0.04 4.39-0.13s3.04-0.32 4.46-0.71 2.7-0.98 3.83-1.77 1.97-1.9 2.52-3.34c0.06-0.14 0.18-0.18 0.37-0.11s0.25 0.19 0.19 0.37c-0.63 1.52-1.54 2.71-2.73 3.57s-2.52 1.49-3.98 1.89-3 0.65-4.61 0.73c-1.61 0.09-3.11 0.13-4.52 0.13 0 2.07-0.28 3.98-0.84 5.75-0.56 1.76-1.32 3.33-2.28 4.69s-2.08 2.51-3.36 3.44-2.6 1.6-3.98 2c-1.58 0.46-3 0.54-4.26 0.24s-2.32-0.83-3.19-1.59c-0.86-0.76-1.51-1.71-1.94-2.84s-0.59-2.3-0.47-3.49 0.52-2.37 1.21-3.53 1.71-2.16 3.06-2.99c0.86-0.52 1.79-0.94 2.78-1.27s2.04-0.59 3.16-0.77c1.12-0.19 2.27-0.32 3.47-0.39 1.19-0.06 2.4-0.11 3.63-0.14zm0.05 0.65c-0.92 0-1.93 0.03-3.03 0.09-1.11 0.06-2.23 0.17-3.38 0.34s-2.27 0.42-3.38 0.75-2.1 0.77-2.99 1.31c-1.23 0.77-2.17 1.69-2.8 2.73-0.63 1.05-1 2.11-1.12 3.19-0.11 1.08 0.02 2.1 0.39 3.08 0.37 0.97 0.94 1.79 1.7 2.43 0.76 0.65 1.71 1.05 2.86 1.23 1.15 0.17 2.44-0.01 3.87-0.56 1.15-0.43 2.22-1.18 3.21-2.24s1.84-2.28 2.56-3.66 1.27-2.83 1.66-4.37c0.38-1.53 0.53-2.98 0.45-4.32z"/>
		<path d="m108.32 120.78c0 0.14-0.07 0.15-0.22 0.02-0.14-0.13-0.17-0.26-0.09-0.41 0.34-0.89 0.92-1.58 1.72-2.07s1.73-0.82 2.78-1.01 2.17-0.24 3.36-0.17 2.35 0.2 3.49 0.39c1.13 0.19 2.2 0.4 3.21 0.65 1 0.24 1.84 0.47 2.5 0.67 0.29-0.83 0.52-1.63 0.69-2.39s0.37-1.43 0.6-2c0.17-0.49 0.39-0.76 0.67-0.82 0.27-0.06 0.52-0.01 0.75 0.13s0.42 0.34 0.56 0.58 0.2 0.41 0.17 0.5c-0.17 0.66-0.35 1.38-0.54 2.15s-0.39 1.65-0.62 2.63c0.63 0.17 1.42 0.38 2.37 0.62s1.95 0.46 3.01 0.65 2.15 0.32 3.25 0.41 2.14 0.05 3.12-0.11c0.97-0.16 1.82-0.46 2.54-0.9s1.23-1.1 1.55-1.96c0.09-0.14 0.23-0.17 0.43-0.09 0.2 0.09 0.23 0.2 0.09 0.34-0.32 0.89-0.85 1.58-1.61 2.07s-1.65 0.84-2.67 1.05c-1.02 0.22-2.11 0.31-3.27 0.28s-2.3-0.11-3.42-0.24-2.17-0.3-3.16-0.52c-0.99-0.21-1.8-0.41-2.43-0.58-0.54 2.47-1.11 5.25-1.7 8.35s-1.11 6.28-1.55 9.56c-0.45 3.27-0.78 6.5-0.99 9.69-0.22 3.19-0.24 6.08-0.07 8.7 0.14 2.01 0.45 3.55 0.9 4.63 0.46 1.08 1.03 1.78 1.72 2.11s1.46 0.34 2.32 0.02 1.75-0.88 2.67-1.68c0.86-0.75 1.75-1.69 2.67-2.82s1.79-2.35 2.63-3.64 1.59-2.6 2.28-3.92 1.26-2.57 1.72-3.75c0.11-0.2 0.26-0.26 0.43-0.17s0.21 0.23 0.13 0.43c-0.52 1.21-1.12 2.47-1.81 3.79s-1.44 2.63-2.24 3.92-1.65 2.51-2.54 3.66-1.79 2.14-2.71 2.97c-0.69 0.63-1.44 1.2-2.24 1.7s-1.61 0.82-2.43 0.95-1.6 0-2.35-0.39-1.39-1.14-1.94-2.26c-0.72-1.38-1.19-3.18-1.42-5.4s-0.3-4.66-0.21-7.32c0.09-2.65 0.3-5.42 0.65-8.29 0.34-2.87 0.75-5.65 1.21-8.33s0.92-5.17 1.38-7.47 0.86-4.19 1.21-5.68c-0.57-0.17-1.32-0.39-2.24-0.67-0.92-0.27-1.92-0.53-3.01-0.77s-2.22-0.43-3.4-0.56-2.28-0.14-3.31-0.02-1.96 0.39-2.78 0.82c-0.85 0.42-1.44 1.08-1.81 1.97z"/>
		<path d="m139.74 147.51c0.11-0.54 0.29-0.88 0.54-0.99 0.24-0.11 0.5-0.11 0.75 0 0.26 0.12 0.48 0.3 0.67 0.56s0.26 0.49 0.24 0.69c-0.09 0.75-0.18 1.52-0.28 2.32s-0.19 1.62-0.26 2.45-0.12 1.66-0.15 2.5c-0.03 0.83-0.02 1.64 0.04 2.41 0.06 1.12 0.19 1.87 0.41 2.24s0.47 0.5 0.78 0.37c0.3-0.13 0.62-0.42 0.95-0.88s0.65-0.95 0.97-1.46c0.46-0.77 0.9-1.67 1.31-2.69 0.42-1.02 0.81-2.08 1.18-3.19 0.37-1.1 0.72-2.22 1.03-3.34 0.32-1.12 0.59-2.18 0.82-3.19 0.09-0.57 0.26-0.92 0.54-1.03 0.27-0.11 0.55-0.09 0.84 0.06 0.29 0.16 0.52 0.41 0.71 0.75s0.24 0.67 0.15 0.99c-0.09 0.77-0.18 1.64-0.28 2.58-0.1 0.95-0.17 1.92-0.22 2.91-0.04 0.99-0.07 1.99-0.09 3.01-0.01 1.02 0.02 1.97 0.11 2.86 0.14 1.43 0.42 2.44 0.84 3.01s0.91 0.83 1.49 0.78c0.6-0.06 1.28-0.36 2.02-0.9 0.75-0.55 1.5-1.24 2.26-2.09s1.51-1.78 2.26-2.8 1.43-2.01 2.04-2.97c0.62-0.96 1.14-1.86 1.57-2.69s0.73-1.46 0.9-1.89c0.11-0.2 0.26-0.26 0.43-0.17s0.21 0.23 0.13 0.43c-0.2 0.52-0.52 1.2-0.95 2.04-0.43 0.85-0.95 1.77-1.57 2.76s-1.29 2.01-2.02 3.06-1.49 2.02-2.28 2.93c-0.79 0.9-1.6 1.69-2.43 2.37-0.83 0.67-1.64 1.14-2.41 1.4-0.77 0.23-1.49 0.17-2.13-0.19-0.65-0.36-1.21-1.14-1.7-2.35-0.32-0.78-0.55-1.64-0.71-2.58-0.16-0.95-0.26-1.89-0.3-2.82s-0.04-1.82 0.02-2.67 0.13-1.56 0.21-2.13c-0.46 1.44-0.98 2.86-1.55 4.28s-1.21 2.75-1.89 3.98c-0.2 0.43-0.45 0.88-0.73 1.36-0.29 0.47-0.61 0.88-0.97 1.23-0.36 0.34-0.73 0.6-1.12 0.75-0.39 0.16-0.77 0.12-1.14-0.11-0.43-0.26-0.77-0.71-1.01-1.36s-0.42-1.41-0.52-2.28c-0.1-0.88-0.15-1.81-0.15-2.8s0.04-1.96 0.11-2.91 0.16-1.83 0.26-2.65c0.1-0.81 0.19-1.46 0.28-1.95z"/>
		<path d="m175.25 146.22c-0.4 1.18-0.9 2.48-1.51 3.9-0.6 1.42-1.28 2.78-2.04 4.09s-1.59 2.48-2.5 3.51-1.84 1.72-2.82 2.07c-1.01 0.34-1.88 0.27-2.63-0.22s-1.29-1.23-1.64-2.24c-0.34-1-0.47-2.2-0.37-3.59s0.5-2.82 1.18-4.28c0.55-1.12 1.23-2.09 2.07-2.91 0.83-0.82 1.77-1.4 2.8-1.74s2.14-0.42 3.34-0.24c1.19 0.19 2.39 0.7 3.59 1.53l0.56-1.94c0.09-1.58 0.2-3.42 0.34-5.53s0.37-4.33 0.67-6.65 0.67-4.66 1.12-7.02c0.45-2.35 1.01-4.56 1.7-6.61s1.5-3.87 2.43-5.45 2.03-2.74 3.29-3.49c1.12-0.69 2.25-1 3.38-0.93s2.15 0.48 3.06 1.23c0.9 0.75 1.62 1.81 2.15 3.19s0.78 3.06 0.75 5.04c-0.03 1.69-0.32 3.46-0.86 5.29-0.54 1.84-1.26 3.68-2.13 5.53-0.88 1.85-1.88 3.68-3.01 5.49s-2.3 3.51-3.51 5.1-2.42 3.04-3.64 4.35-2.35 2.4-3.38 3.29c0.03 0.66 0.06 1.57 0.09 2.73s0.12 2.38 0.28 3.66 0.39 2.51 0.71 3.7c0.31 1.19 0.75 2.14 1.31 2.84s1.28 1.07 2.15 1.1c0.88 0.03 1.94-0.47 3.21-1.51 1.69-1.38 3.24-3.11 4.63-5.19s2.49-4.23 3.29-6.44c0.11-0.2 0.26-0.26 0.43-0.17s0.22 0.23 0.13 0.43c-0.43 1.12-0.93 2.25-1.51 3.38-0.57 1.13-1.2 2.22-1.87 3.27s-1.4 2.03-2.17 2.95c-0.78 0.92-1.59 1.72-2.45 2.41-1.61 1.32-2.98 2.02-4.13 2.09s-2.12-0.26-2.93-0.99c-0.8-0.73-1.45-1.76-1.94-3.08s-0.86-2.71-1.12-4.18c-0.26-1.46-0.42-2.91-0.47-4.33-0.04-1.4-0.06-2.55-0.03-3.44zm-0.69 0.52c-1.06-0.77-2.08-1.21-3.06-1.31s-1.87 0.05-2.69 0.45-1.54 1-2.17 1.81c-0.63 0.8-1.16 1.74-1.59 2.8-0.4 0.95-0.67 1.94-0.82 2.99-0.14 1.05-0.17 2-0.09 2.84 0.09 0.85 0.3 1.53 0.65 2.04 0.34 0.52 0.8 0.73 1.38 0.65 0.54-0.09 1.1-0.37 1.68-0.84 0.57-0.47 1.14-1.08 1.7-1.81s1.1-1.54 1.61-2.41c0.52-0.88 0.99-1.76 1.42-2.65s0.82-1.73 1.16-2.52c0.35-0.79 0.62-1.47 0.82-2.04zm3.14-0.65c1-0.86 2.08-1.93 3.23-3.21s2.3-2.7 3.47-4.26c1.16-1.56 2.28-3.22 3.36-4.97s2.04-3.52 2.88-5.32c0.85-1.79 1.53-3.58 2.04-5.36 0.52-1.78 0.8-3.46 0.86-5.04 0.06-1.66-0.14-3.13-0.58-4.39-0.45-1.26-1.04-2.23-1.79-2.91-0.75-0.67-1.59-1.01-2.54-1.01s-1.91 0.4-2.88 1.21c-1.03 0.86-1.94 2.12-2.73 3.77s-1.48 3.52-2.07 5.6-1.08 4.3-1.49 6.67c-0.4 2.37-0.73 4.71-0.97 7.04s-0.43 4.54-0.56 6.65c-0.12 2.11-0.2 3.95-0.23 5.53z"/>
		<path d="m193.54 144.37c0.09-0.49 0.27-0.8 0.56-0.93s0.58-0.14 0.88-0.02 0.56 0.33 0.78 0.65c0.21 0.32 0.31 0.67 0.28 1.08-0.09 0.4-0.18 0.93-0.28 1.59s-0.19 1.41-0.26 2.24-0.13 1.72-0.17 2.65-0.06 1.87-0.06 2.82c0 0.57 0.04 1.24 0.13 2s0.22 1.51 0.41 2.26 0.42 1.43 0.71 2.04c0.29 0.62 0.66 1.06 1.12 1.33s1 0.32 1.61 0.15c0.62-0.17 1.33-0.69 2.13-1.55 0.77-0.8 1.56-1.73 2.35-2.78s1.54-2.14 2.24-3.27 1.36-2.28 1.96-3.44 1.12-2.26 1.55-3.29c0.09-0.2 0.21-0.24 0.39-0.11 0.17 0.13 0.23 0.25 0.17 0.37-0.43 1.03-0.95 2.15-1.57 3.34s-1.28 2.38-1.98 3.57-1.45 2.33-2.24 3.42-1.59 2.04-2.39 2.84c-1.06 1.09-2.01 1.79-2.84 2.11s-1.57 0.35-2.22 0.11-1.2-0.7-1.66-1.38c-0.46-0.67-0.84-1.45-1.14-2.32-0.3-0.88-0.53-1.79-0.69-2.75s-0.26-1.86-0.32-2.69c-0.06-1.03-0.08-2.07-0.06-3.1s0.05-1.99 0.11-2.88 0.14-1.69 0.24-2.39c0.08-0.72 0.18-1.27 0.26-1.67zm2.07-7.15c0.4 0 0.74 0.14 1.01 0.41s0.41 0.67 0.41 1.18c0 0.46-0.15 0.83-0.45 1.12s-0.65 0.43-1.06 0.43c-0.43-0.03-0.79-0.19-1.08-0.5s-0.43-0.7-0.43-1.18c0-0.52 0.16-0.89 0.47-1.12 0.33-0.22 0.7-0.34 1.13-0.34z"/>
		<path d="m209.34 147.64c0.09-0.6 0.46-0.9 1.12-0.9-0.32-0.92-0.51-1.79-0.58-2.63-0.07-0.83-0.04-1.64 0.11-2.41 0.26-1.23 0.68-2.27 1.27-3.12s1.27-1.46 2.05-1.83c0.77-0.37 1.6-0.5 2.48-0.37s1.71 0.57 2.52 1.31c0.98 0.92 1.7 2.14 2.17 3.66s0.76 3.14 0.86 4.86 0.04 3.42-0.19 5.1-0.56 3.12-0.99 4.33c1.21 0.23 2.47 0.24 3.79 0.02 1.32-0.21 2.58-0.65 3.79-1.29 1.21-0.65 2.3-1.51 3.29-2.58 0.99-1.08 1.77-2.37 2.35-3.9 0.09-0.23 0.21-0.29 0.37-0.19s0.22 0.25 0.19 0.45c-0.57 1.55-1.39 2.89-2.45 4.02s-2.24 2.05-3.53 2.75-2.63 1.17-4.02 1.4-2.73 0.22-4.03-0.04c-0.52 1.09-1.23 2.04-2.13 2.84s-1.85 1.33-2.84 1.57-1.97 0.14-2.93-0.3c-0.96-0.45-1.76-1.38-2.39-2.82-0.29-0.75-0.5-1.55-0.65-2.41-0.14-0.86-0.23-1.73-0.26-2.6-0.03-0.88 0.02-1.74 0.13-2.58 0.1-0.84 0.27-1.62 0.5-2.34zm10.2 7.88c0.46-1.12 0.81-2.51 1.06-4.18 0.24-1.66 0.34-3.34 0.28-5.04-0.06-1.69-0.32-3.29-0.77-4.78-0.46-1.49-1.16-2.64-2.11-3.44-0.72-0.6-1.47-0.95-2.26-1.05s-1.53 0.02-2.22 0.37c-0.69 0.34-1.3 0.9-1.83 1.66s-0.88 1.69-1.05 2.78c-0.14 0.83-0.17 1.69-0.06 2.58 0.1 0.89 0.26 1.79 0.5 2.71 0.23 0.26 0.36 0.47 0.39 0.65 0.03 0.17 0.07 0.39 0.13 0.65 0.57 1.69 1.51 3.19 2.82 4.48 1.29 1.27 3 2.15 5.12 2.61zm-0.34 0.64c-1.89-0.46-3.51-1.33-4.84-2.6-1.33-1.28-2.33-2.69-2.99-4.24-0.29 1.18-0.39 2.4-0.32 3.68s0.31 2.46 0.71 3.55c0.52 1.35 1.11 2.24 1.79 2.67 0.67 0.43 1.36 0.55 2.07 0.37 0.7-0.19 1.37-0.6 2-1.25 0.62-0.65 1.15-1.37 1.58-2.18z"/>
		<path d="m128.36 168.64v22.33h9.85v0.43h-9.85v20.6h-7.09v-43.8h27.73v0.43h-20.64z"/>
		<path d="m151.49 212.01v-43.8h7.09v43.8z"/>
		<path d="m175.48 190.24h-2.82v21.77h-7.09v-43.8h7.09v21.6h2.87l23.62-21.6h0.64l-18.98 17.35 21.62 26.45h-9.14z"/>
		<path d="m222.55 194.75h-13.1l-6.56 17.26h-0.46l16.64-43.8h1.31l16.02 43.8h-7.53zm-0.16-0.43-6.27-17.14-6.51 17.14z"/>
	</g>
</svg>
