<?xml version="1.0" encoding="utf-8"?>
<svg id="gold" xmlns="http://www.w3.org/2000/svg" viewBox="35.175 77.821 248.716 143.502">
  <defs>
    <style>
      .cls-1 {
        fill: url(#Gold);
      }

      .cls-2 {
        fill: url(#linear-gradient-4);
      }

      .cls-3 {
        fill: url(#linear-gradient-3);
      }

      .cls-4 {
        fill: url(#linear-gradient-2);
      }

      .cls-5 {
        fill: url(#linear-gradient);
      }

      .cls-6 {
        fill: url(#Gold-7);
      }

      .cls-7 {
        fill: url(#Gold-6);
      }

      .cls-8 {
        fill: url(#Gold-2);
      }

      .cls-9 {
        fill: url(#Gold-9);
      }

      .cls-10 {
        fill: url(#Gold-4);
      }

      .cls-11 {
        fill: url(#Gold-3);
      }

      .cls-12 {
        fill: url(#Gold-8);
      }

      .cls-13 {
        fill: url(#Gold-5);
      }

      .cls-14 {
        fill: url(#Gold-10);
      }

      .cls-15 {
        fill: url(#Gold-16);
      }

      .cls-16 {
        fill: url(#Gold-11);
      }

      .cls-17 {
        fill: url(#Gold-13);
      }

      .cls-18 {
        fill: url(#Gold-15);
      }

      .cls-19 {
        fill: url(#Gold-17);
      }

      .cls-20 {
        fill: url(#Gold-12);
      }

      .cls-21 {
        fill: url(#Gold-14);
      }
    </style>
    <linearGradient id="linear-gradient" x1="81.39" y1="215.98" x2="128.69" y2="134.05" gradientUnits="userSpaceOnUse">
      <stop offset="0" stop-color="#fac929"/>
      <stop offset="0.03" stop-color="#face3d"/>
      <stop offset="0.08" stop-color="#fadd70"/>
      <stop offset="0.13" stop-color="#fbe898"/>
      <stop offset="0.18" stop-color="#fbf1b5"/>
      <stop offset="0.22" stop-color="#fbf6c6"/>
      <stop offset="0.25" stop-color="#fcf8cd"/>
      <stop offset="0.6" stop-color="#c1912d"/>
      <stop offset="0.87" stop-color="#edd586"/>
      <stop offset="1" stop-color="#fcf8cd"/>
    </linearGradient>
    <linearGradient id="linear-gradient-2" x1="141.61" y1="216.14" x2="179.12" y2="151.17" href="#linear-gradient"/>
    <linearGradient id="linear-gradient-3" x1="179.3" y1="221.72" x2="218" y2="154.69" href="#linear-gradient"/>
    <linearGradient id="linear-gradient-4" x1="244.63" y1="220.4" x2="274.48" y2="168.7" href="#linear-gradient"/>
    <linearGradient id="Gold" x1="29.36" y1="135.61" x2="45.46" y2="107.74" gradientTransform="translate(-28.08 47.44) rotate(-22.86)" gradientUnits="userSpaceOnUse">
      <stop offset="0" stop-color="#fac929"/>
      <stop offset="0.25" stop-color="#fcf8cd"/>
      <stop offset="0.3" stop-color="#f5ecbb"/>
      <stop offset="0.41" stop-color="#e5d08e"/>
      <stop offset="0.55" stop-color="#caa147"/>
      <stop offset="0.6" stop-color="#c1912d"/>
      <stop offset="0.87" stop-color="#edd586"/>
      <stop offset="1" stop-color="#fcf8cd"/>
    </linearGradient>
    <linearGradient id="Gold-2" data-name="Gold" x1="34.96" y1="143.71" x2="73.99" y2="76.11" href="#Gold"/>
    <linearGradient id="Gold-3" data-name="Gold" x1="67.43" y1="123.69" x2="76.57" y2="107.85" href="#Gold"/>
    <linearGradient id="Gold-4" data-name="Gold" x1="84.71" y1="127.52" x2="110.15" y2="83.46" href="#Gold"/>
    <linearGradient id="Gold-5" data-name="Gold" x1="105.72" y1="120.41" x2="115.04" y2="104.29" href="#Gold"/>
    <linearGradient id="Gold-6" data-name="Gold" x1="120.67" y1="120.5" x2="129.15" y2="105.81" href="#Gold"/>
  </defs>
  <g>
    <path class="cls-5" d="M112.1,179.64c8.23,0,15.46-5.89,17.57-13.34v26.69c-2.11-7.45-9.34-13.34-17.57-13.34v31.58c0,3.67,2.89,7.34,6.78,7.34h-33.03c3.67,0,6.67-3.67,6.67-7.34v-63.17c0-3.67-3-7.34-6.67-7.34h26.24v38.92ZM140.24,140.71v21.02c-3-11.57-14.35-21.02-27.02-21.02h27.02Z"/>
    <path class="cls-4" d="M167.04,212.44c0,2.67,2,5.67,4.56,6.12h-25.8c2.56-.45,4.56-3.45,4.56-6.12v-39.59c0-2.78-2-5.67-4.56-6.12l19.02-2.78h.33c1.22,0,1.89.67,1.89,1.89v46.6ZM150.14,149.39c0-4.78,3.78-8.67,8.56-8.67s8.67,3.89,8.67,8.67-3.78,8.56-8.67,8.56-8.56-3.78-8.56-8.56Z"/>
    <path class="cls-3" d="M231.76,218.56h-20.24c-1.78,0-3.11-1-4.78-4.45-3.89-8.01-8.12-24.24-11.68-27.25v25.58c0,2.67,2,5.67,4.56,6.12h-25.8c2.56-.45,4.56-3.45,4.56-6.12v-62.83c0-2.67-2-5.67-4.56-6.12l19.02-2.78h.33c1.22,0,1.89.78,1.89,2v44.15c3.89,0,10.23-3.56,14.23-7.01,5.12,3.67,10.12,28.14,17.13,35.59,1.45,1.67,3.22,3.11,5.34,3.11ZM208.19,163.96h23.58c-1.45.22-2.89.67-4.45,1.45-2.67,1.22-6.45,3.34-10.34,7.23l-4.56,4.45c1.45-1.33,2.22-3.11,2.22-5.23,0-3.89-2.78-7.56-6.45-7.9Z"/>
    <path class="cls-2" d="M277.36,210.22c0,2.67,2,5.67,4.56,6.12l-19.13,2.78h-.22c-1.22,0-2-.78-2-2v-32.14c-3.67,1.78-11.12,4.67-12.01,15.01-.44,5.34,1,9.45,3.34,12.01,2.33,2.56,6.12,3.78,8.45,2.56-2.67,1.89-7.12,4.56-13.23,4.56-7.01,0-13.23-4-14.9-10.23-1.78-6.34,1.67-12.79,7.9-16.68,9.56-5.67,35.25-10.01,35.7-18.46.11-1.78-.78-3.89-2.22-5.56,2,1.89,3.23,4.11,3.67,6.67.11.56.11,1.22.11,1.78v33.58ZM235.21,178.75c0-7.45,9.79-14.68,18.68-15.57-4,.56-6.23,2.56-6.23,4.89,0,1.67,1,3.11,2.34,4.78,1.67,1.45,2.45,3.45,2.45,5.89,0,4.78-3.89,8.56-8.67,8.56s-8.56-3.78-8.56-8.56Z"/>
  </g>
  <g>
    <path class="cls-1" d="M54.72,160.95c-.22-.53-.34-.97-.35-1.32-.16-1.05-.2-2.63-.12-4.75.36-3.28.86-6.22,1.52-8.79.2-.85.19-1.61-.02-2.29-.63-1.82-1.16-3.17-1.59-4.03-.47-.78-.91-1.32-1.32-1.64-.6-.58-1.27-.86-2.02-.82-.44.12-1,.11-1.68-.02-.66-.07-1.02-.44-1.09-1.11l-.17-.66c.06-2.18.4-4,1.04-5.46l.73-1.25c.19-.22.37-.36.55-.44.08.03.18.05.28.04.1,0,.16.02.19.08l-.03.43c-.78,1.45-1.23,3.37-1.32,5.78.02.2.06.64.13,1.3,0,.14.02.3.1.48.15.35.46.51.92.45.39.11.78.12,1.16.03,1.6.16,2.8.94,3.6,2.35.21.33.45.73.72,1.21.27.48.47.87.59,1.16.07.18.17.24.29.19l.14-.16.26-.63c.51-1.61,1.73-4.81,3.69-9.6l.24-.42c.14-.34.36-.47.67-.39.35,0,.56.04.64.15.08.11.05.33-.09.66l-2.84,7.15-1.05,2.95-.7,2.07c-.17.42-.17,1.01.01,1.77,1.25,4.28,1.21,9-.1,14.15l-.12.47c-.19.71-.46,1.14-.82,1.29-.06.03-.49.07-1.3.13-.37-.05-.62-.23-.74-.52ZM56.81,153.28c.04-.23.08-.8.11-1.72.03-.92-.05-1.76-.22-2.52-.18.07-.3.27-.38.58-.49,2.64-.75,4.91-.79,6.81l.08,2.16c-.02.29.06.46.22.53.55-1.34.87-3.29.98-5.85Z"/>
    <path class="cls-8" d="M71.63,167.61c-.47.2-.95.05-1.44-.44-.32-.42-.73-1.08-1.25-1.98-.96-2.1-1.76-4.41-2.4-6.93-.91-3.65-1.82-8.11-2.71-13.38l-2.67-16.74c-.52-3.54-.96-7.89-1.31-13.03-.11-.93-.18-1.42-.21-1.48-.07-.18-.23-.22-.47-.12l-1.08.66c-.45.26-1.85,1.1-4.22,2.51-2.36,1.41-4.67,2.6-6.92,3.54-1.18.5-2.27.82-3.25.95-1.14.27-2.31.31-3.5.12-.87-.26-1.48-.53-1.8-.81-.08-.03-.16-.14-.24-.32-.15-.35-.08-.7.2-1.02.18-.07.34-.11.48-.1.08.03.12.09.12.16,0,.07,0,.14.03.2-.1.25-.15.48-.13.68-.04.23.1.41.44.55.2-.02.36-.01.47,0,.11.02.21.05.3.08.57.04,1.38-.03,2.43-.19,1.23-.38,2.12-.68,2.65-.91,1.83-.77,3.81-1.79,5.92-3.07,2.11-1.27,4.12-2.52,6.05-3.75l1.93-1.13c.27-.18.4-.45.4-.79l-.15-1.09c-.04-1.09-.19-2.77-.45-5.03-.03-.89-.13-2.21-.31-3.95-.02-.2-.03-.39-.03-.56,0-.17,0-.33,0-.47.07-.17.16-.28.28-.33.18-.07.33-.04.47.12l.15.35c.13.3.19.55.21.75l.47,3.35.72,4.92c.05.12.07.3.07.54,0,.25.06.44.2.6.17.07.33.05.5-.05.17-.1.28-.17.34-.19l6.03-3.79,6.58-3.72,3.04-1.7c1.01-.57,2.47-1.41,4.37-2.52,1.9-1.11,3.51-2.09,4.83-2.92,2.36-1.34,3.86-2.15,4.52-2.43.53-.22,1.5-.49,2.9-.8.67-.07,1.14.15,1.42.65l.75,1.04c.25.59.32,1.09.21,1.48-.07.17-.19.29-.37.36s-.32,0-.42-.24c-.32-.42-.45-.82-.4-1.19.11-.39-.09-.55-.62-.47-1.49.28-2.72.66-3.7,1.14l-8.4,5.11-4.21,2.4-9.18,5.23-7.09,4.24-.44.19c-.33.21-.5.56-.5,1.05l.36,3.09c.54,4.93,1.42,10.89,2.64,17.9.43,2.19.88,4.89,1.33,8.11.11.93.27,2.08.47,3.46.2,1.38.47,2.97.81,4.78.67,3.9,1.47,7.46,2.41,10.68.43,1.35.76,2.29.98,2.83l.87,1.83.35.58c.17.07.3.05.39-.06l.17-.59c.35-.98.58-2.26.68-3.84.33-3.83.54-8.48.6-13.94.04-1.55.05-2.7,0-3.45.04-6.84.17-11.98.39-15.42l.22-3.44c-.03-.4.23-.62.78-.64.06-.02.13-.02.22.01.08.03.12.12.11.27l-.03.43c-.13,5.63-.27,12.09-.39,19.39l-.2,9.7c-.04.57-.09,1.69-.15,3.36-.07,1.67-.19,3.19-.36,4.59-.18,1.4-.39,2.53-.65,3.41l-.27.85c-.17.42-.45.68-.83.77h-.52Z"/>
    <path class="cls-11" d="M84.77,134.59c-.25-.1-.42-.24-.49-.42-.38-.4-.63-.92-.76-1.56-.58-2.19-.95-4.16-1.13-5.9-.02-.2-.04-.42-.07-.65-.03-.23-.09-.54-.18-.92-.19.22-.29.43-.3.65-.01.21-.04.37-.07.45-.04.23-.41,1.67-1.1,4.33-.31,1.25-.7,2.21-1.18,2.9-.23.45-.61.78-1.14,1s-1.09.22-1.68-.02c-.23-.04-.49-.25-.78-.61-.42-.66-.67-1.18-.76-1.56-.59-1.56-.88-3.32-.87-5.28-.09-.38-.08-.77.03-1.16.05-.37.29-.54.72-.51.34.14.47.29.4.46.04,1.59.45,3.64,1.24,6.16l.29.92c.17.41.44.72.8.92.27-.18.51-.48.73-.88.21-.4.35-.69.42-.86.33-.7.66-1.67.97-2.91l1.95-8.76c0-.14.05-.3.12-.47s.11-.39.13-.68c.1-.25.33-.38.67-.39.35,0,.59.07.72.22.13.15.2.4.21.75.1,2.88.33,5.57.69,8.07.24,1.57.6,3.16,1.07,4.77,0,.14.06.39.21.75.29.36.55.4.77.09.09-.11.21-.33.35-.67.51-.77.85-1.37,1.02-1.79.92-2.27,1.63-4.31,2.12-6.12l1.52-5.55.21-.5c.09-.45.22-.72.4-.79.06-.02.32,0,.77.09.25.1.39.26.4.46l-.13.68c-.96,4.17-2.22,8.11-3.79,11.84-.6,1.23-1.1,2.1-1.51,2.62-.32.55-.62.85-.88.89-.93.11-1.63.1-2.11-.05Z"/>
    <path class="cls-10" d="M101.53,126.27c.26.79.48,1.47.65,2.03l.34.8c.35.83.76,1.56,1.24,2.19.4.46.69.65.87.57.24-.1.45-.33.65-.69.32-.55.72-1.42,1.2-2.6,1.3-4.03,2.23-7.59,2.81-10.69l1.16-5.92.47-1.87c.11-.39.38-.58.81-.55.29.02.41.14.36.37l.04.09c-.28,1.16-.61,2.94-.99,5.33-.25,2.06-.6,3.95-1.06,5.67-.59,2.41-1.29,4.86-2.12,7.37-.43,1.3-.82,2.26-1.18,2.9-.26.53-.69.92-1.28,1.17-.47.2-.97.25-1.5.16-.53-.09-.97-.31-1.32-.65-.49-.49-1.05-1.33-1.69-2.53-.55-1.3-1-2.61-1.34-3.93-.7-2.49-1.31-4.92-1.81-7.28-.08-.52-.23-.88-.45-1.06-.06.03-.17.25-.35.67l-1.27,3.67c-.07.17-.3.61-.69,1.34-.35.5-.75.7-1.2.61l-.64-.04c-.55.02-.91-.17-1.08-.59-.27-.65-.46-1.17-.55-1.55-.37-1.86-.29-3.57.25-5.12l.41-1.01c.42-.66,1.02-1.06,1.8-1.18.89-.03,1.68.1,2.35.37.35-.49.45-1.24.32-2.22-.33-1.6-.53-2.91-.61-3.92-.28-1.83-.43-3.82-.43-5.98-.01-4.66.21-9.18.66-13.55.21-1.97.58-3.66,1.1-5.06.38-.92.72-1.59,1.04-2,.16-.28.42-.49.77-.64.47-.2,1.09-.15,1.84.16.17.07.28.18.35.32l.13.31.11.27c.15.35.25.94.32,1.75.11,1.42.1,3.2-.04,5.35-.09,2.27-.54,6.15-1.36,11.65-.82,4.67-1.48,8.15-1.97,10.44-.19.71-.2,1.51-.03,2.41.64,3.84,1.35,7.09,2.13,9.76.27,1.14.54,2.11.8,2.9ZM96.01,114.91c-.63-.5-1.18-.65-1.65-.45-.35.15-.62.44-.79.85l-.24.42c-.52,1.75-.56,3.72-.12,5.9l.19.44.29.19c.08.03.15.02.2-.03.05-.05.1-.09.16-.12l.1-.25c.63-1.31,1.33-3.38,2.08-6.21.02-.29-.05-.54-.21-.75ZM97.93,107.31c.12-.54.17-.84.14-.9.34-1.67.79-4.16,1.35-7.46.71-3.92,1.14-7.13,1.27-9.63.12-2.7.1-4.71-.04-6.04-.08-.52-.18-.93-.31-1.23-.05-.12-.13-.19-.25-.21-.11-.02-.19.01-.22.09-.19.22-.38.58-.59,1.08-.38.93-.71,2.04-.99,3.34-.34,1.68-.62,4.23-.84,7.67-.22,4.76-.18,8.82.12,12.18.02.55.14.92.36,1.1Z"/>
    <path class="cls-13" d="M116.6,116.89c-.53.22-1.16.31-1.87.27-.66-.07-1.18-.41-1.57-1.01l-.7-1.17c-.85-2.5-1.18-5.04-1.02-7.62.09-.45.18-.81.28-1.06,0-.14.13-.23.36-.26.23-.03.43,0,.6.06.03.06.06.11.12.16.05.05.06.11.03.2-.23,1.28-.23,2.5-.02,3.67.21,1.16.58,2.61,1.1,4.34l.25.84c.1.24.31.57.63.99.3.22.6.27.9.14s.58-.31.86-.57c.27-.25.46-.44.55-.55,1.07-1.43,1.86-2.52,2.37-3.3l2.82-4.95,1.23-2.29.29-.54c.14-.34.26-.53.38-.58.06-.02.36.02.9.14.06-.02.12-.01.17.03.05.05.06.11.03.2l-.21.5c-2.17,4.12-4.06,7.32-5.67,9.6-.66.91-1.27,1.62-1.82,2.13-.42.32-.75.53-.99.63ZM110.9,100.17c-.07-.67-.04-1.24.11-1.72.02-.29.2-.43.55-.44.06-.02.17,0,.34.07-.03.08-.03.19.02.3-.17.42-.11.74.2.96.19.13.27.31.22.53.11.44,0,.73-.36.88-.55.02-.91-.17-1.08-.59Z"/>
    <path class="cls-7" d="M128.74,111.25c-.53.22-1.2.12-2.01-.3-.36-.19-.75-.62-1.17-1.28-.52-1.24-.79-2.45-.8-3.63.03-.92-.17-1.64-.59-2.15-.11-.09-.23-.29-.35-.58-.15-.35-.21-.75-.18-1.18-.22-2.34.36-4.44,1.74-6.27l.42-.49c.46-.4.89-.69,1.31-.86.77-.32,1.83-.21,3.17.34.34.14.6.44.8.91l.46.85c.13.3.23.71.31,1.23.32,1.75.35,3.4.11,4.97l-.02.95c-.1.25-.08.38.06.39.08.03.24,0,.48-.1,1.08-.73,2.12-1.66,3.11-2.78l2.2-2.7.23-.2c.41-.17.8-.09,1.15.25.07.18.06.39-.04.64l-1.38,1.94c-1.41,1.78-3.24,3.21-5.5,4.3l-.3.02c-.41.17-.66.59-.73,1.25-.38,1.41-.84,2.55-1.39,3.41-.32.55-.69.92-1.11,1.09ZM129.43,108.3c.38-.82.61-1.56.68-2.22l-.56-.08c-.75.04-1.66-.06-2.74-.31-.25-.1-.39-.01-.41.28.06,1.3.28,2.39.65,3.28l.5.94c.15.35.41.39.77.09.35-.49.71-1.15,1.1-1.98ZM130.13,105.13c.3-.12.47-.37.52-.74.18-1.4.25-2.72.21-3.96,0-.14-.04-.66-.14-1.56-.1-.9-.32-1.76-.67-2.59l-.59-.9c-.15-.35-.4-.46-.76-.31-.59.25-1.13.72-1.6,1.41-1.23,1.71-1.79,3.68-1.68,5.93,0,.35.16.56.48.63.4.11.55.4.46.85v.22c.02.41.05.64.07.7.13.3.47.46,1.05.5.83.14,1.61.09,2.34-.15.08.03.18.03.3-.02Z"/>
  </g>
</svg>