<svg viewBox="0 0 104.78 9.948" preserveAspectRatio="xMinYMin meet" xmlns="http://www.w3.org/2000/svg">
    <g fill-rule="evenodd">
        <path d="m15.385 5.1732c1.258-1.2066 0.864-2.9783-0.211-3.4894-1.898-0.93378-3.973 1.0151-3.022 2.954 0.949 1.9959 3.324 3.3911 6.557 3.79 7.016 0.8396 20.891-4.3334 29.691-5.9163 6.537-1.176 10.53 0.591 12.685 2.548-4.429-2.1249-8.465-1.3859-12.619-0.8642-9.531 1.1971-19.389 6.2797-29.836 5.4802-4.877-0.4935-8.294-3.7743-8.013-6.3468 0.025-0.2286 0.079-0.4516 0.164-0.6666 0.642-1.5246 1.77-2.1498 2.769-2.3353 2.717-0.50416 5.407 2.8496 1.835 4.8464z"/>
        <path d="m14.036 7.6783c-0.963-0.9388-1.956-2.3959-2.842-3.0405-9.3172-6.7767-14.092 2.3786-9.3146 5.0096 0.7372 0.4056 2.265 0.6496 3.3594-0.9668-1.3392 1.1222-2.8253 0.7369-3.4392 0.1566-1.6342-1.5446-1.0611-3.7363 0.8607-4.7373 3.0271-1.27 5.7612 0.0887 8.1537 1.9728 1.709 1.1251 2.147 1.6502 3.524 2.3378-0.782 0.0357-0.371-1.094-1.115-1.6242l0.813 0.892z"/>
        <path d="m89.398 4.7748c-1.259 1.2066-0.864 2.9783 0.211 3.4894 1.898 0.9338 3.973-1.0151 3.022-2.954-0.949-1.9959-3.324-3.3911-6.558-3.79-7.015-0.83961-20.89 4.3334-29.69 5.9163-6.537 1.1759-10.53-0.591-12.685-2.548 4.429 2.1249 8.465 1.3859 12.619 0.8641 9.531-1.197 19.389-6.2796 29.836-5.4801 4.877 0.49353 8.294 3.7742 8.013 6.3468-0.025 0.2286-0.079 0.4516-0.164 0.6666-0.642 1.5245-1.77 2.1498-2.769 2.3353-2.717 0.5038-5.408-2.8496-1.835-4.8464z"/>
        <path d="m90.747 2.2697c0.963 0.9388 1.956 2.3959 2.842 3.0405 9.321 6.7768 14.091-2.3786 9.311-5.0096-0.73-0.40595-2.26-0.64963-3.356 0.9668 1.336-1.1222 2.826-0.73688 3.436-0.1566 1.64 1.5446 1.06 3.7363-0.86 4.7372-3.025 1.2701-5.759-0.0886-8.151-1.9727-1.709-1.1252-2.148-1.6503-3.524-2.3378 0.782-0.0357 0.371 1.094 1.115 1.6241l-0.813-0.8919z"/>
    </g>
</svg>
