<svg width="174.05mm" height="6.5974mm" viewBox="0 0 174.05 6.5974" preserveAspectRatio="xMinYMin meet" xmlns="http://www.w3.org/2000/svg">
    <g transform="translate(32.427 -90.439)">
        <path d="m44.138 96.56c3.1986-0.48773 2.6356-5.0856 0-5.6467-25.001 2.6093-50.672 1.7844-76.565 2.9223 25.769 1.1798 50.797-0.44343 76.565 2.7244z" stroke-width=".75098"/>
        <path d="m57.737 93.738c0 1.8218-1.4065 3.2986-3.1415 3.2986-1.735 0-3.1415-1.4768-3.1415-3.2986 0-1.8218 1.4065-3.2987 3.1415-3.2987 1.735 0 3.1415 1.4768 3.1415 3.2987z" stroke-width=".76729"/>
        <path d="m65.058 96.56c-3.1986-0.48773-2.6356-5.0856 0-5.6467 25.001 2.6093 50.672 1.7844 76.565 2.9223-25.769 1.1798-50.797-0.44343-76.565 2.7244z" stroke-width=".75098"/>
    </g>
</svg>
