<svg viewBox="0 0 141.59 169.8" preserveAspectRatio="xMinYMin meet" xmlns="http://www.w3.org/2000/svg">
    <g transform="translate(63.44 -40.225)">
        <path d="m13.093 123.47c-0.80363-0.24307-1.3924-0.85937-1.6383-1.6013l4.8366-0.89782c0.01376 0.27622-0.01623 0.5588-0.10054 0.83926-0.39688 1.3113-1.7861 2.0556-3.0977 1.6598m1.4379-4.7572c0.80328 0.24271 1.3924 0.85937 1.6383 1.6009l-4.8366 0.89853c-0.01341-0.27693 0.01587-0.55986 0.10054-0.83996 0.39652-1.3113 1.7861-2.056 3.0977-1.6595m0.19297-0.63923c-1.6641-0.50307-3.4272 0.44132-3.9299 2.1057-0.50306 1.6644 0.44203 3.4272 2.1061 3.9303 1.6641 0.50271 3.4272-0.44203 3.9303-2.1064 0.50306-1.6641-0.44168-3.4269-2.1064-3.9296m14.761-54.636c-0.16545 0.115-0.31468 0.23742-0.46708 0.3563-0.14781 0.1203-0.31785 0.26564-0.45191 0.38206-0.1397 0.1337-0.27728 0.26599-0.41346 0.39652-0.13335 0.1337-0.2801 0.25294-0.39405 0.39793-0.49071 0.54963-0.92357 1.1024-1.2633 1.6542-0.34572 0.54928-0.60713 1.0869-0.81703 1.5744-0.09384 0.24836-0.17886 0.48225-0.26423 0.69779-0.06738 0.21908-0.11924 0.42333-0.1718 0.60819-0.02611 0.09313-0.05045 0.18098-0.07338 0.26388-0.02328 0.08326-0.0321 0.16475-0.04657 0.23848-0.0078 0.04269-0.01482 0.08008-0.02152 0.11818-0.01764 0.09737-0.03422 0.18697-0.04727 0.26-0.0388 0.20567-0.05891 0.31503-0.05891 0.31503s7.06e-4 -0.11148 0.0018-0.32032c0.0018-0.10442 0.0032-0.23283 6e-3 -0.38418 0.0028-0.07585-0.0021-0.15734 0.0074-0.24377 0.01164-0.08643 0.02364-0.17886 0.03598-0.27622 0.02681-0.19509 0.0508-0.41451 0.08855-0.65088 0.05327-0.23213 0.11712-0.48154 0.18274-0.75071 0.02434-0.08043 0.0501-0.16439 0.07691-0.24836 0.1464-0.4632 0.33443-0.96732 0.60219-1.4817 0.03669-0.07761 0.07444-0.15558 0.11218-0.23424 0.04057-0.07726 0.08855-0.15134 0.1337-0.22825 0.09207-0.15275 0.18521-0.30903 0.28081-0.46743 0.04904-0.07867 0.09384-0.16157 0.14781-0.23812 0.05644-0.07585 0.11359-0.15099 0.1711-0.22754 0.11571-0.1524 0.23283-0.30762 0.35207-0.46496 0.11254-0.16334 0.25894-0.30021 0.39194-0.45261 0.13723-0.14958 0.27622-0.30092 0.41592-0.45402 0.15804-0.15699 0.28822-0.28363 0.45261-0.42686 0.16369-0.14076 0.32879-0.28575 0.50024-0.41522 0.67945-0.53411 1.4446-1.0174 2.2828-1.3854 0.83714-0.36618 1.7378-0.63641 2.6652-0.76906 0.92639-0.12629 1.8789-0.11642 2.7915 0.05962 0.91405 0.16863 1.7812 0.5147 2.5333 0.98496 0.37747 0.23248 0.72708 0.49777 1.0347 0.79234 0.15804 0.14288 0.29845 0.30021 0.43991 0.45156l0.01341 0.01411 0.01482 0.01729 6e-3 0.0071 0.02293 0.02822 0.04621 0.05644 0.09207 0.11289c0.06138 0.07479 0.12206 0.1464 0.18239 0.2353 0.49142 0.66428 0.81598 1.3469 1.0178 2.0151 0.20638 0.66358 0.28857 1.294 0.30974 1.8486 0.02716 0.55457-0.02328 1.035-0.08079 1.4245-0.01482 0.09701-0.02928 0.18909-0.04269 0.27552-0.01834 0.08502-0.03598 0.16545-0.05221 0.24024-0.03175 0.14852-0.06103 0.27481-0.09137 0.37536-0.05715 0.20073-0.08819 0.30798-0.08819 0.30798s0.01129-0.11042 0.0314-0.31856c0.0134-0.10266 0.02187-0.23107 0.02822-0.38135 0.01058-0.14958 0.01552-0.32209 0.01588-0.5147 0.0025-0.38418-0.01975-0.85055-0.10195-1.3727-0.08325-0.52176-0.23072-1.0986-0.4699-1.6912-0.05997-0.14711-0.133-0.29281-0.20144-0.44309-0.08184-0.14464-0.15416-0.29669-0.24659-0.44027-0.09172-0.14358-0.1778-0.29351-0.28399-0.43356-0.09842-0.14781-0.2092-0.28011-0.31926-0.41451-0.10266-0.12912-0.26423-0.29104-0.375-0.40922-0.13582-0.12559-0.26741-0.25682-0.41522-0.37289-0.29069-0.23707-0.59866-0.46531-0.9398-0.65334-0.33831-0.1905-0.69779-0.35772-1.0763-0.48789-0.37924-0.127-0.77294-0.22648-1.1762-0.29704-0.80751-0.13406-1.6524-0.14217-2.4832-0.02434-0.83256 0.10795-1.651 0.34078-2.4179 0.66463-0.76376 0.33055-1.4915 0.72566-2.1357 1.1998m-16.784 61.332c-2.0313-0.61384-3.1806-2.7577-2.5668-4.7893 0.61419-2.0309 2.758-3.1806 4.79-2.5668 2.0309 0.61419 3.1799 2.7587 2.5658 4.79-0.61313 2.0313-2.7577 3.1799-4.789 2.5661m-31.635 51.522 28.463-52.516 0.29351 0.15981zm-2.5037-9.8323c-1.96-0.63993-3.9282-1.2718-5.8826-1.9304-1.9544-0.65687-3.8911-1.354-5.7968-2.0941-3.8079-1.482-7.4863-3.1757-10.839-5.1862-3.3528-2.0077-6.3927-4.2877-8.9877-6.7599-0.32597-0.3108-0.65017-0.61807-0.95426-0.92957-0.15416-0.15487-0.30762-0.31009-0.46108-0.46355-0.15311-0.16016-0.30551-0.31997-0.4572-0.47837-0.59725-0.63676-1.1606-1.2876-1.6831-1.954-1.0456-1.331-1.9329-2.7224-2.6031-4.1501-0.67028-1.427-1.1247-2.8854-1.3458-4.3074-0.22472-1.4213-0.20602-2.8018-0.0127-4.0654 0.19685-1.2654 0.57644-2.4109 1.0375-3.41 0.46284-1.0008 1.0114-1.8574 1.5695-2.5756 1.1243-1.4393 2.2761-2.3195 3.0893-2.8409 0.40993-0.26035 0.74048-0.4318 0.96626-0.53975 0.22542-0.10901 0.34466-0.15875 0.34466-0.15875s-0.11712 0.0543-0.33831 0.1718c-0.22049 0.11642-0.54328 0.30057-0.94051 0.57468-0.78881 0.54822-1.8937 1.4683-2.9468 2.9238-0.52599 0.72496-1.0354 1.5815-1.4559 2.5721-0.4191 0.98955-0.74965 2.1135-0.90205 3.3422-0.15452 1.2266-0.13688 2.5552 0.11571 3.9169 0.24941 1.3621 0.72355 2.7524 1.4062 4.1113 0.68121 1.36 1.5625 2.6906 2.6067 3.9617 0.5214 0.63606 1.0827 1.2584 1.6778 1.8666 0.14852 0.14958 0.30127 0.30797 0.44909 0.45085 0.15699 0.15063 0.31432 0.30092 0.47202 0.45191 0.31468 0.30797 0.63712 0.59795 0.96097 0.89217 1.3046 1.1726 2.7005 2.3262 4.197 3.404 1.4954 1.0809 3.0787 2.1082 4.7417 3.0625 0.83361 0.47343 1.681 0.93909 2.5495 1.3801 0.43004 0.22824 0.87207 0.4385 1.3102 0.65969 0.4438 0.20849 0.88477 0.42827 1.3353 0.63041 1.7935 0.82868 3.6467 1.5893 5.5365 2.3033 3.7832 1.4228 7.7107 2.6596 11.644 3.9282 1.9671 0.63465 3.9352 1.2809 5.8822 1.9816l0.22154 0.0797c-0.2032 0.40323-0.40322 0.80081-0.60149 1.1934-1.9435-0.70908-3.9215-1.3663-5.9051-2.0147m-29.634-42.062c0.49071-0.18592 0.87842-0.2921 1.1412-0.35525 0.13088-0.0342 0.23178-0.0526 0.2981-0.0667 0.06703-0.0148 0.1016-0.0219 0.1016-0.0219s-0.03387 8e-3 -0.10019 0.0258c-0.06597 0.0173-0.16651 0.0391-0.29563 0.0787-0.25894 0.0741-0.64135 0.19508-1.1215 0.39863-0.95568 0.40217-2.3213 1.1451-3.7345 2.4705-0.70238 0.66251-1.4086 1.476-2.0186 2.461-0.60396 0.98602-1.1081 2.1484-1.3614 3.4526-0.25682 1.3014-0.24236 2.7386 0.09243 4.1868 0.33126 1.4492 0.97825 2.8974 1.8478 4.2859 0.87312 1.3885 1.977 2.7132 3.2367 3.9673 0.30586 0.30727 0.64805 0.62513 0.97472 0.94122 0.33408 0.30797 0.67028 0.61171 1.0125 0.91933 0.69709 0.60326 1.4108 1.209 2.1583 1.7928 2.9799 2.3516 6.4086 4.4563 10.134 6.277 3.7176 1.8387 7.7283 3.3927 11.864 4.8112 4.1331 1.4312 8.3929 2.7404 12.625 4.1942 0.2353 0.0811 0.47096 0.16333 0.70591 0.24518-0.20179 0.4011-0.40217 0.79869-0.59972 1.192-0.17956-0.0635-0.35842-0.12806-0.53799-0.19014-4.1949-1.4616-8.4596-2.7753-12.611-4.2464-4.149-1.4704-8.1943-3.084-11.953-4.9908-3.7578-1.9043-7.2147-4.1141-10.212-6.5599-0.37959-0.29986-0.73978-0.61807-1.1045-0.92534-0.3616-0.30938-0.70802-0.63323-1.058-0.94544-0.3429-0.32315-0.68474-0.64629-1.0167-0.96732-0.3242-0.32879-0.6417-0.63676-0.96485-0.97508-1.2654-1.3159-2.3763-2.7079-3.2533-4.1709-0.87665-1.4605-1.5106-2.999-1.8175-4.5321-0.31044-1.5325-0.28328-3.0484 0.02328-4.4048 0.29986-1.3596 0.86819-2.5495 1.5244-3.5444 0.66146-0.99342 1.4118-1.8006 2.1491-2.4507 0.73836-0.65229 1.4686-1.1462 2.128-1.5261 0.66181-0.37888 1.2541-0.64312 1.7445-0.82691m3.6322-0.11007c0.55033-0.1076 0.97861-0.15169 1.2672-0.17074 0.14393-0.0113 0.25365-0.0138 0.32702-0.0155 0.07303-2e-3 0.11042-4e-3 0.11042-4e-3s-0.03739 3e-3 -0.11042 8e-3 -0.18274 0.0127-0.32561 0.0296c-0.2861 0.0314-0.7112 0.0924-1.2527 0.22225-1.0781 0.26211-2.6508 0.80363-4.3695 1.9593-0.85372 0.57891-1.735 1.3254-2.5075 2.2881-0.76376 0.96343-1.4164 2.16-1.6775 3.5451-0.27058 1.3818-0.1076 2.9164 0.44097 4.3991 0.55245 1.4848 1.4464 2.9288 2.5647 4.2824 0.55668 0.67733 1.1744 1.3427 1.8214 1.978 0.3369 0.31927 0.67345 0.65264 1.0199 0.96732 0.3496 0.3108 0.68827 0.63465 1.0569 0.9398 1.4478 1.2446 3.0092 2.4564 4.699 3.5818 3.3719 2.2641 7.2069 4.216 11.307 5.9193 2.0525 0.84737 4.172 1.6365 6.3387 2.3798 1.0834 0.37077 2.1777 0.73519 3.2822 1.0894 1.1038 0.35701 2.2151 0.7112 3.3338 1.0604 2.7019 0.84808 5.4465 1.6757 8.188 2.5679-0.20144 0.4004-0.40146 0.79657-0.59972 1.1899-2.6585-0.87136-5.3319-1.688-7.9752-2.528-4.4831-1.4104-8.8794-2.9164-13.022-4.6775-4.143-1.7558-8.0116-3.8188-11.411-6.1814-1.7018-1.1769-3.2822-2.4317-4.7279-3.7352-0.36654-0.31962-0.71226-0.66358-1.0633-0.9906-0.34643-0.33091-0.66992-0.6664-1.0015-0.99378-0.66499-0.68333-1.2749-1.373-1.8383-2.0906-1.1243-1.4273-2.0362-2.9545-2.5749-4.5466-0.26458-0.79587-0.43886-1.6034-0.49424-2.4003-0.03281-0.39829-0.02469-0.7934-0.0028-1.1797 0.02928-0.38735 0.08431-0.76588 0.16263-1.1335 0.32314-1.4721 1.0478-2.7171 1.8782-3.6869 0.8382-0.97297 1.7685-1.7036 2.6585-2.2645 0.89218-0.56233 1.7491-0.95744 2.5125-1.2418 0.76447-0.28328 1.4362-0.45932 1.9861-0.56727m-3.3775 4.6535c-0.17956 0.27729-0.34431 0.57503-0.48119 0.89288-0.13547 0.31856-0.24518 0.65546-0.32491 1.0065-0.15663 0.70273-0.18874 1.4608-0.08502 2.22 0.09419 0.76235 0.31997 1.5236 0.61948 2.2719 0.30727 0.74612 0.69462 1.4785 1.1462 2.1929 0.90558 1.428 2.0433 2.7905 3.3193 4.1116 2.5495 2.6384 5.6741 5.1622 9.2904 7.3187 0.90452 0.53834 1.833 1.0647 2.7929 1.5572 0.4766 0.25435 0.96626 0.4886 1.4549 0.73237 0.49389 0.23177 0.98884 0.4699 1.494 0.69038 1.0058 0.45367 2.0362 0.88054 3.0833 1.2901 1.0463 0.41205 2.1128 0.80045 3.1926 1.1748 1.5995 0.55527 3.2322 1.0735 4.8853 1.5716-0.30233 0.34043-0.60219 0.67874-0.89888 1.0128-9.8732-3.441-20.265-7.9446-27.173-14.875-6.9363-6.9585-4.8983-12.056-1.1751-14.482-0.41169 0.37183-0.8061 0.80398-1.1398 1.313m34.024 28.088c1.6351 0.46108 3.2833 0.91687 4.9336 1.3875 0.40534 0.11607 0.81104 0.23319 1.2164 0.35102-0.25012 0.496-0.49777 0.98989-0.74436 1.4785-2.1297-0.67592-4.3646-1.3843-6.6537-2.1435zm12.399-10.656c-1.9152 3.7917-3.8248 7.5812-5.6501 11.205-0.48719-0.1397-0.97437-0.27905-1.4594-0.41522-1.3804-0.38876-2.7531-0.76553-4.1155-1.143zm19.126-32.827c0.28998-0.49036 0.56374-0.98884 0.8375-1.4873 0.13758-0.24942 0.26564-0.50307 0.39864-0.75424 0.13441-0.25083 0.26141-0.50483 0.38841-0.75918 0.26-0.50518 0.50271-1.0195 0.74577-1.5328 0.23354-0.51823 0.4692-1.035 0.68368-1.5607 0.11218-0.26141 0.21872-0.52387 0.32032-0.78916 0.1023-0.26459 0.2099-0.52741 0.30409-0.79516 0.1972-0.53199 0.38418-1.0675 0.56444-1.6058l0.25506-0.81104 0.23495-0.81773c0.14781-0.54716 0.28575-1.0968 0.40711-1.6503 0.121-0.55351 0.22613-1.1102 0.31679-1.6686 0.04551-0.2794 0.07937-0.56056 0.11994-0.84032 0.03528-0.28081 0.06174-0.56303 0.09349-0.84349 0.02152-0.28187 0.04939-0.56339 0.06773-0.84561 0.01129-0.28187 0.03493-0.5648 0.03669-0.84702 0.0053-0.28258 0.01341-0.5648 0.0049-0.84737l-0.0078-0.42369-0.02152-0.42298c-0.0095-0.28222-0.0441-0.56303-0.06597-0.8442-0.03457-0.27975-0.06315-0.56127-0.10901-0.83926-0.08255-0.55809-0.20673-1.1084-0.34854-1.6542-0.15205-0.54257-0.33584-1.0749-0.55104-1.5946l-0.05292-0.12665 0.12241-0.05503c0.18521-0.08396 0.36407-0.20638 0.53411-0.33902 0.16933-0.13406 0.33196-0.28116 0.48895-0.43321 0.31468-0.30656 0.60748-0.63782 0.88865-0.9779 0.56162-0.68404 1.0746-1.4097 1.548-2.1586 0.47096-0.75106 0.91405-1.5226 1.2816-2.3301 0.18344-0.40393 0.34996-0.81598 0.47731-1.2404 0.12453-0.42333 0.23072-0.86501 0.18027-1.3099 0.03669 0.22013 0.02893 0.44556 0.0028 0.6671-0.02681 0.22225-0.07267 0.44132-0.12947 0.65722-0.11501 0.43215-0.26952 0.85266-0.44238 1.2647-0.1718 0.41204-0.36336 0.81598-0.56797 1.2132-0.20426 0.39652-0.42122 0.7874-0.65229 1.1695-0.4632 0.76482-0.96591 1.5064-1.5212 2.2094-0.27834 0.35101-0.56974 0.69286-0.88759 1.0146-0.15875 0.16016-0.32456 0.31538-0.50094 0.46108-0.14499 0.11712-0.29669 0.22825-0.46602 0.32244 0.20673 0.49142 0.3803 0.99624 0.52846 1.5081 0.14887 0.55598 0.2787 1.1165 0.36583 1.6852 0.04939 0.28293 0.08043 0.56868 0.11712 0.85337 0.02434 0.28575 0.06103 0.5715 0.07232 0.85796l0.02469 0.42968 0.01058 0.43074c0.01023 0.28681 0.0042 0.57362 7.06e-4 0.86042-3.53e-4 0.28716-0.02222 0.57291-0.0321 0.85937-0.01729 0.28646-0.04163 0.57185-0.06456 0.85796-0.03351 0.28399-0.06315 0.56868-0.1009 0.85337-0.04233 0.28258-0.07832 0.56691-0.12735 0.84878-0.09419 0.5655-0.20461 1.1268-0.32985 1.6856-0.12665 0.5581-0.26882 1.1123-0.42192 1.6634l-0.24236 0.82303-0.26211 0.81633c-0.18627 0.5401-0.37359 1.0806-0.58561 1.6108-0.09984 0.26741-0.21308 0.53023-0.32173 0.79446-0.10689 0.26458-0.21908 0.52705-0.3369 0.78705-0.22648 0.52458-0.47308 1.04-0.71755 1.5547-0.25435 0.51153-0.50694 1.0224-0.77823 1.5244-0.13088 0.25365-0.26917 0.50341-0.41063 0.75071-0.14146 0.24765-0.27799 0.49777-0.42333 0.7433-0.29069 0.49037-0.58032 0.98108-0.88547 1.4623-0.29598 0.48719-0.62054 0.95567-0.93098 1.4333 0.29139-0.48966 0.5909-0.97438 0.87277-1.4679m13.274-50.933c2.8194-2.636 6.6223-3.4516 9.7568-2.4098 1.2368 0.41099 2.3696 1.1105 3.2971 2.1026 3.2777 3.5056 2.7471 9.3274-1.1843 13.003-2.6931 2.5174-6.2826 3.3743-9.3306 2.5393-1.4026-0.38453-2.6906-1.1268-3.7236-2.2313-3.2777-3.5059-2.7471-9.3278 1.1846-13.004m-3.3076 13.588c-0.05186-0.17851-0.11924-0.35242-0.1905-0.52388-0.07232-0.17074-0.15487-0.33796-0.24024-0.50306-0.08749-0.16369-0.18062-0.32491-0.27728-0.48295-0.09842-0.15804-0.20214-0.31186-0.30727-0.46567-0.21096-0.30586-0.43886-0.59972-0.6791-0.8823-0.1203-0.14146-0.24412-0.28081-0.37183-0.41592-0.12559-0.13547-0.25647-0.26705-0.38911-0.39688-0.133-0.12912-0.26952-0.25471-0.4071-0.37782-0.14076-0.12171-0.28152-0.24165-0.42651-0.35631-0.14499-0.115-0.29245-0.22648-0.44203-0.33373-0.14922-0.10936-0.30233-0.21237-0.45755-0.31186-0.15593-0.09948-0.31432-0.19226-0.47519-0.28152-0.16087-0.08784-0.32597-0.16863-0.49212-0.24589l-0.1076-0.05009 0.02223-0.11218 0.10266-0.50941 0.12841-0.50306c0.04692-0.16651 0.1016-0.3309 0.15205-0.496 0.05327-0.1651 0.11748-0.32561 0.17533-0.48895 0.12559-0.32209 0.26282-0.63994 0.41451-0.95038 0.15134-0.3108 0.31432-0.6163 0.4946-0.91052 0.08537-0.14993 0.18027-0.29422 0.27481-0.4385 0.09207-0.1464 0.19015-0.28822 0.29034-0.42827 0.09772-0.14288 0.19897-0.28187 0.30409-0.41804 0.10336-0.13758 0.20779-0.27517 0.31821-0.40746 0.21484-0.26917 0.44097-0.52881 0.67275-0.78317 0.23142-0.25471 0.47237-0.50059 0.7172-0.74189 0.24624-0.24024 0.49883-0.47308 0.75777-0.69956l0.39546-0.3302 0.40393-0.31962 0.4124-0.30868 0.42086-0.29739c0.28258-0.19403 0.57009-0.381 0.86184-0.56092 0.29351-0.1778 0.58984-0.35101 0.89253-0.51118 0.3048-0.15769 0.61207-0.30939 0.92463-0.44873 0.31362-0.13864 0.62936-0.27129 0.9518-0.38629 0.32032-0.11959 0.64982-0.21308 0.9786-0.30268-0.3235 0.10901-0.64311 0.22684-0.95638 0.36054-0.31503 0.12876-0.62265 0.27552-0.92675 0.42721-0.30339 0.15346-0.60113 0.31785-0.89535 0.48824l-0.43674 0.26176-0.42968 0.27234c-0.28434 0.18662-0.56303 0.37994-0.83785 0.57926l-0.4057 0.30621-0.39864 0.31609-0.38947 0.32667-0.38065 0.3369c-0.25047 0.22825-0.49848 0.45826-0.73836 0.69744-0.23918 0.23918-0.47308 0.48366-0.6985 0.7359s-0.44485 0.50941-0.65334 0.77541c-0.10654 0.13088-0.20779 0.2667-0.30798 0.40252-0.10266 0.13441-0.19967 0.27199-0.29422 0.41169-0.09631 0.13864-0.19156 0.27799-0.27975 0.42192-0.09066 0.14182-0.18203 0.28399-0.26458 0.43074-0.17145 0.29069-0.33161 0.58667-0.48295 0.88759-0.15134 0.30092-0.28716 0.60854-0.41275 0.9211-0.05715 0.15769-0.12136 0.31362-0.17462 0.47308-0.05045 0.16051-0.10583 0.31891-0.15275 0.48048l-0.12876 0.48754-0.08114 0.38382c0.13617 0.06562 0.27023 0.13441 0.40181 0.20779 0.1658 0.09384 0.32949 0.19191 0.48895 0.29598 0.1591 0.10442 0.31644 0.21167 0.46814 0.32561 0.15452 0.11148 0.30021 0.23319 0.4452 0.35489 0.14605 0.12136 0.28681 0.24871 0.4258 0.37712 0.13758 0.13018 0.27305 0.26211 0.40534 0.39758 0.13088 0.13617 0.26035 0.27411 0.38488 0.41663 0.12594 0.1404 0.2473 0.2861 0.36477 0.43356 0.23671 0.29422 0.46002 0.59972 0.66569 0.91652 0.10266 0.15875 0.19756 0.32173 0.29069 0.48648 0.09102 0.16545 0.1778 0.33338 0.25859 0.50412 0.07867 0.17145 0.15416 0.34466 0.21943 0.52211 0.06456 0.17709 0.12453 0.35666 0.16792 0.5401 0.04904 0.18274 0.07726 0.37006 0.09419 0.5581 0.01305 0.18803 0.0078 0.37677-0.02222 0.56198 0.0381-0.3743-0.02928-0.74718-0.13582-1.1021m16.929-31.498c-0.12347-0.31186-0.25224-0.6223-0.39934-0.92534-0.14464-0.30374-0.29951-0.60254-0.47096-0.89218-0.17004-0.29104-0.34854-0.57785-0.55457-0.84526 0.43991 0.514 0.79763 1.0943 1.1158 1.6919 0.16157 0.2981 0.30445 0.60572 0.44344 0.9151l0.19685 0.4699 0.17498 0.47872 0.1591 0.48366 0.14323 0.4886 0.127 0.49424 0.11042 0.49777c0.06562 0.33373 0.12982 0.66816 0.17357 1.0054 0.05256 0.3362 0.08396 0.67486 0.1143 1.0139 0.0187 0.33972 0.04269 0.67945 0.04269 1.0195 0.01199 0.34078-0.0025 0.68051-0.0088 1.0209-0.0194 0.33902-0.03387 0.6798-0.06809 1.0181-0.03387 0.33831-0.06703 0.67733-0.11994 1.0132-0.04269 0.33726-0.10372 0.67169-0.16722 1.0061-0.05433 0.3362-0.1404 0.66534-0.21519 0.99695-0.07937 0.33091-0.17674 0.65617-0.26423 0.9846l-0.28152 0.89994 0.34643 0.53658c0.13194 0.19932 0.24201 0.41169 0.36477 0.6163 0.12312 0.20496 0.23213 0.41734 0.34078 0.62971 0.11007 0.21167 0.2219 0.42263 0.31856 0.64064 0.09807 0.21731 0.20602 0.43039 0.29598 0.65123l0.26846 0.66252 0.24236 0.67239c0.07973 0.22472 0.1464 0.45332 0.22013 0.67945 0.0762 0.22578 0.13229 0.4572 0.19791 0.6858 0.06773 0.22825 0.11959 0.46073 0.17498 0.69215 0.05856 0.23072 0.10442 0.46461 0.14887 0.69815 0.04833 0.23283 0.08255 0.46849 0.11536 0.7045 0.03881 0.2346 0.05927 0.47202 0.08255 0.70873 0.02963 0.23601 0.02752 0.47484 0.04233 0.71191 0.0039 0.11818-0.0018 0.23742-0.0028 0.35701-3.52e-4 0.11853-0.0018 0.23742-0.01764 0.3556-0.01376 0.11783-0.01905 0.23707-0.03986 0.35384l-0.0702 0.3489 0.05009-0.35137c0.01341-0.11712 0.01199-0.23636 0.0187-0.35348 0.0081-0.11783 0.0035-0.23566-7.05e-4 -0.35348-0.0042-0.11818-0.0039-0.23601-0.0127-0.35348-0.0254-0.2353-0.03351-0.47061-0.07303-0.70414-0.03351-0.23354-0.0635-0.46672-0.11218-0.69815-0.04233-0.23213-0.08714-0.46355-0.14358-0.6925-0.05115-0.23036-0.10266-0.46002-0.16651-0.68721-0.06103-0.22754-0.11853-0.45579-0.19156-0.68051-0.07091-0.22472-0.13229-0.45191-0.21414-0.67345-0.078707-0.22119-0.15103-0.44591-0.23569-0.66569l-0.25718-0.65758-0.28222-0.64735c-0.09102-0.21696-0.19897-0.4258-0.29774-0.63923-0.09701-0.21449-0.20884-0.42086-0.31891-0.62865-0.10936-0.20849-0.21837-0.41628-0.34149-0.6163-0.12171-0.20073-0.23178-0.40887-0.36336-0.6029l-0.29492-0.55986 0.05045-0.03598 0.02258-0.07408 0.20002-0.99131c0.0829-0.32456 0.12982-0.66075 0.20567-0.98707 0.06738-0.32808 0.13511-0.65864 0.19191-0.98884 0.06385-0.32879 0.11642-0.6611 0.16157-0.99307 0.05503-0.3302 0.08467-0.66569 0.1203-0.99836 0.03739-0.33302 0.05115-0.66851 0.07303-1.0026 0.0092-0.33408 0.02505-0.66957 0.01658-1.0044 0.0032-0.33514-0.01834-0.66922-0.03351-1.0037-0.02928-0.33373-0.04621-0.66851-0.09031-1.0005-0.03494-0.33373-0.089268-0.66393-0.14571-0.99413l-0.095956-0.49389-0.11148-0.49036-0.12876-0.48613-0.14499-0.48154c-0.10407-0.31926-0.21414-0.63641-0.33479-0.95003m-14.241 40.323c4.7057-4.5992 17.081-5.2719 18.399-14.684 1.0548-7.5346-2.4998-10.113-2.1791-14.445 0.35348-4.7801 0.61031-12.992-3.9091-15.344-0.13652-0.07126-0.26317-0.12841-0.38206-0.17533-1.6224-0.63923-1.6256 0.86572-1.0763 1.3748 2.9302 2.7182 2.4236 10.026-0.21484 12.98-3.835 4.2958-16.837 3.26-19.681 16.042 8.1262 5.1608 7.2083 11.952-0.01305 18.234 1.5893 5.715-0.09419 15.329-3.9945 21.306-1.1144 1.7071-4.3917 7.9329-8.5676 16.066-8.0208 9.0749-17.421 19.688-25.271 28.546-1.8415-0.52916-3.6544-1.0756-5.4215-1.6708-4.2831-1.4291-8.3054-3.1408-11.879-5.1982-3.5772-2.0525-6.6668-4.475-9.2368-6.997-1.2792-1.2612-2.4172-2.5608-3.3207-3.9116-0.44944-0.67663-0.84067-1.3635-1.1536-2.0592-0.30586-0.69815-0.53904-1.4044-0.64735-2.1064-0.11748-0.70061-0.10936-1.3945 0.0127-2.0422 0.0635-0.32455 0.15487-0.63606 0.26952-0.9331 0.11677-0.29739 0.2607-0.57714 0.41981-0.84067 0.64382-1.058 1.5508-1.8207 2.4296-2.377 0.03528-0.0222 0.0702-0.043 0.10548-0.0642 2.9157-1.1557 6.1401-0.87348 6.9825 1.1479 1.0082 2.4179-0.73096 4.3586-2.2472 5.0225-2.2793 0.99801-3.5175-0.25859-3.7119-1.4718-2.7365 2.8963 0.91017 5.5545 4.4341 5.878 10.658 0.97685 13.184-16.894-1.8687-19.181-6.1916-0.94015-14.42 1.9244-17.977 11.554-3.5492 9.6107 0.69021 24.089 21.21 32.995 3.1235 1.3554 6.8823 2.8222 10.782 4.458-3.5168 3.9666-5.6914 6.4174-5.6914 6.4174l6.8813-5.9136c3.8238 1.6288 7.7329 3.4269 11.274 5.4494-2.4638 4.8754-4.2178 8.3143-4.7713 9.308-1.7526 3.1404-1.8461 4.0569-1.0389 3.1796 0.42086-0.45826 1.0866-1.4026 1.8898-2.7753 2.3442-4.0033 47.258-68.938 47.258-68.938-1.4249-7.4112-6.32-20.791 1.9061-28.83m-8.2945 99.127c0.57432 4.5978 0.0695 9.1578-1.3511 13.158-0.70979 1.9999-1.6658 3.8548-2.8279 5.485-1.161 1.6295-2.5365 3.0275-4.0386 4.1219-1.5014 1.0968-3.1288 1.8774-4.7427 2.3674-1.6168 0.49005-3.2145 0.69925-4.7089 0.72955-1.4958 0.0289-2.8903-0.12129-4.1571-0.34989-1.2672-0.23219-2.4081-0.54296-3.4216-0.86899-0.091017-0.0296-0.18027-0.0599-0.26952-0.0896-8.7524-1.9498-16.2-9.236-14.739-11.912 0 0 13.054 10.744 16.26-5.11 1.4552-7.1946-3.5962-12.775-10.755-17.286 0.98354-1.446 2.0648-3.0321 3.224-4.7293 0.8322 0.33972 1.6545 0.6925 2.4638 1.064 1.82 0.84173 3.5726 1.7812 5.1961 2.8628 1.6221 1.0823 3.1196 2.3005 4.4189 3.6657 0.65193 0.6798 1.2633 1.3882 1.8161 2.1297l0.2099 0.27552 0.19861 0.28328c0.12912 0.18803 0.27129 0.37747 0.38982 0.56268 0.12629 0.19579 0.26352 0.39476 0.38029 0.58632 0.11712 0.19297 0.23812 0.38135 0.35172 0.57679 0.92287 1.5628 1.6383 3.1993 2.0846 4.8563 0.44415 1.6556 0.64135 3.3299 0.50976 4.9304-0.062794 0.79939-0.1972 1.5794-0.4064 2.3227-0.21061 0.74365-0.49142 1.4527-0.8322 2.1128-0.67169 1.3282-1.6013 2.45-2.6324 3.3422-1.034 0.8957-2.177 1.5526-3.3048 2.0409-1.1331 0.48119-2.2578 0.7856-3.3147 0.97081-1.0587 0.18136-2.0482 0.26211-2.9436 0.27657-0.89676 0.0145-1.6986-0.0359-2.3939-0.10265-0.34854-0.0272-0.66851-0.073-0.96344-0.10693-0.29351-0.0434-0.56021-0.0833-0.79939-0.1192-0.47554-0.0846-0.84032-0.1524-1.0844-0.2074-0.24448-0.0515-0.37077-0.0787-0.37077-0.0787s0.12453 0.0346 0.36583 0.10157c0.23989 0.0702 0.60043 0.16055 1.0717 0.27478 0.94368 0.21417 2.3484 0.49678 4.1709 0.56624 0.91017 0.0325 1.9241 6e-3 3.0191-0.13751 1.0936-0.14429 2.2698-0.4082 3.4749-0.86004 1.2019-0.45477 2.4278-1.1155 3.5627-2.0307 1.1314-0.91369 2.1735-2.0863 2.9489-3.5003 0.38594-0.70626 0.70979-1.4668 0.95744-2.268 0.24624-0.80081 0.41204-1.6422 0.50059-2.5047 0.17921-1.7265 0.024694-3.5373-0.42863-5.3128-0.45156-1.7773-1.186-3.5211-2.1332-5.1795-0.11712-0.20884-0.24553-0.41628-0.3683-0.62512-0.12488-0.2092-0.25188-0.39864-0.37783-0.60008-0.13159-0.21272-0.27199-0.40216-0.40852-0.60572l-0.20638-0.30092-0.21766-0.2928c-0.57573-0.78811-1.2107-1.5455-1.8979-2.2627-1.366-1.4443-2.9355-2.7294-4.6224-3.8633-1.6887-1.1335-3.4981-2.1107-5.3633-2.981-0.74224-0.34431-1.4933-0.6731-2.2514-0.98848 0.35454-0.51823 0.71614-1.0467 1.0823-1.5822 0.71649 0.27834 1.4305 0.56233 2.1371 0.85725 2.0274 0.85019 4.0026 1.7928 5.8674 2.878 1.8606 1.0901 3.6075 2.3276 5.153 3.7447 1.5402 1.427 2.872 3.0092 3.9508 4.7508 1.0583 1.7124 1.8613 3.5761 2.3626 5.4614 0.50412 1.8877 0.71473 3.8089 0.63888 5.6663-0.077611 1.8563-0.44379 3.652-1.0869 5.2758-0.64347 1.6235-1.5476 3.0773-2.6381 4.2753-1.0897 1.2004-2.3618 2.1368-3.6805 2.8191-1.3247 0.67095-2.6839 1.114-3.9952 1.3641-1.313 0.25012-2.5714 0.33899-3.7349 0.32107-1.1642-0.0138-2.2341-0.11077-3.1937-0.25436-1.9181-0.29284-3.3997-0.69715-4.3995-0.99412-0.502-0.14401-0.88018-0.27549-1.1363-0.36051-0.25647-0.0847-0.38841-0.12816-0.38841-0.12816s0.12947 0.0505 0.381 0.14827c0.25188 0.097 0.62371 0.24793 1.1183 0.4184 0.98531 0.34713 2.4486 0.83424 4.3762 1.2058 0.96273 0.1852 2.0436 0.33266 3.23 0.39398 1.1853 0.0608 2.4783 0.0145 3.8442-0.19717 1.3635-0.21417 2.8-0.61447 4.2115-1.2876 1.4058-0.67938 2.7824-1.633 3.9769-2.8786 1.1963-1.2411 2.2035-2.7672 2.9168-4.4842 0.71931-1.7159 1.1451-3.6146 1.2668-5.5824 0.05997-0.98425 0.04339-1.9858-0.05009-2.994-0.09737-1.0065-0.27764-2.0175-0.53128-3.0198-0.51153-2.0087-1.3243-3.9694-2.4423-5.8265-1.1017-1.8253-2.5079-3.5422-4.1236-5.0387-1.6214-1.4972-3.4431-2.794-5.364-3.9282-2.5107-1.4697-5.1738-2.6741-7.892-3.7387 0.43462-0.63359 0.87665-1.2795 1.325-1.9332 0.48789 0.17568 0.97508 0.35418 1.4594 0.53728 2.2151 0.83255 4.3928 1.7508 6.4696 2.83 2.0754 1.077 4.0527 2.3149 5.8113 3.7825 1.7568 1.4672 3.2854 3.1627 4.4905 5.0444 1.1822 1.8715 1.9907 3.9666 2.4867 6.084 0.49424 2.1237 0.67239 4.2838 0.59584 6.3853-0.08008 2.1022-0.43215 4.1508-1.0389 6.0572-0.60572 1.9085-1.4757 3.6731-2.5672 5.2-1.0901 1.5289-2.4116 2.8099-3.8654 3.7697-1.451 0.96531-3.0233 1.6042-4.5731 1.9823-1.5526 0.37966-3.0833 0.50314-4.517 0.47199-1.4355-0.0296-2.7764-0.21086-4.0016-0.44648-1.2263-0.23784-2.3368-0.54225-3.3278-0.8552-1.9801-0.63462-3.4893-1.2802-4.5064-1.7395-0.50941-0.2311-0.89641-0.41493-1.155-0.54158-0.26-0.12689-0.3937-0.19152-0.3937-0.19152s0.13088 0.0701 0.38523 0.20711c0.25365 0.13861 0.63288 0.33832 1.1317 0.59119 1.0001 0.49882 2.4797 1.2217 4.4538 1.9251 0.98707 0.35002 2.0976 0.69603 3.3316 0.98114 1.234 0.2854 2.5943 0.50437 4.064 0.5781 1.4683 0.0739 3.0512-5e-3 4.6785-0.35416 1.626-0.34642 3.2904-0.98597 4.844-1.967 1.5558-0.97621 2.9841-2.2991 4.1695-3.8855 1.1885-1.584 2.1241-3.429 2.7929-5.4155 1.3286-3.9744 1.6334-8.5337 0.64347-13.013-0.50165-2.2359-1.3257-4.4517-2.583-6.4876-0.63006-0.99978-1.342-1.9625-2.1325-2.8603-0.79093-0.89923-1.6584-1.7342-2.5785-2.5086-1.844-1.5483-3.8978-2.8416-6.0321-3.9585-2.1368-1.119-4.3582-2.0638-6.6044-2.9154-0.38382-0.14393-0.76941-0.28151-1.155-0.42156 0.24836-0.3609 0.49742-0.72496 0.74895-1.0915 2.9408 0.96273 5.5534 1.8803 7.6577 2.8148 12.402 5.5058 21.48 23.245 9.5448 38.487-3.9927 5.0987-9.0992 6.5881-14.037 6.1492 0.3616 0.0717 0.73237 0.13864 1.1162 0.19653 1.2541 0.18451 2.6257 0.28939 4.0838 0.22585 1.4556-0.0667 2.999-0.31185 4.5434-0.8238 1.5413-0.51358 3.0794-1.3003 4.4958-2.3745 1.4157-1.0764 2.703-2.4391 3.7839-4.0239 1.0834-1.5839 1.9593-3.3859 2.6187-5.3184 1.3134-3.8703 1.7318-8.2843 1.1204-12.698-0.60219-4.4069-2.2754-8.8558-5.219-12.475-1.4587-1.8217-3.1471-3.478-5.025-4.9138-1.8743-1.4414-3.9349-2.6543-6.0829-3.6954-2.4529-1.1825-5.0091-2.1512-7.6002-3.0081 0.25788-0.37642 0.51682-0.75318 0.77788-1.1335 0.20002 0.0667 0.4004 0.12947 0.60008 0.19685 2.3047 0.77576 4.59 1.6785 6.8009 2.7577 2.2084 1.0795 4.3434 2.3446 6.2943 3.8541 1.9505 1.5057 3.7239 3.2385 5.2222 5.1636 0.18768 0.23919 0.36618 0.48578 0.54928 0.72849l0.13617 0.18238 0.1337 0.18804c0.08537 0.12206 0.17074 0.24059 0.25753 0.37147 0.34784 0.51188 0.66604 1.0238 0.96873 1.5512 0.60325 1.052 1.1218 2.1435 1.5632 3.2547 0.88336 2.2243 1.4496 4.5318 1.7455 6.8284m54.428-94.626c0.0321 0.07303 0.06068 0.13123 0.09419 0.21308 0.02434 0.06809 0.04904 0.13476 0.07232 0.20073 0.04657 0.13194 0.09208 0.25859 0.13547 0.38065 0.07303 0.25471 0.13088 0.49318 0.18662 0.70309 0.03634 0.21414 0.06879 0.40534 0.09701 0.5715 0.02928 0.16475 0.02999 0.31009 0.04339 0.42439 0.01729 0.23001 0.02681 0.35242 0.02681 0.35242s-0.02928-0.11924-0.08396-0.34325c-0.02963-0.11077-0.05151-0.25082-0.10442-0.40781-0.05009-0.1584-0.10724-0.33937-0.1711-0.54257-0.07973-0.1965-0.16228-0.4124-0.26176-0.64452-0.0575-0.11606-0.11712-0.23671-0.17886-0.36195-0.03069-0.06315-0.06209-0.12665-0.09349-0.19226-0.03422-0.05891-0.06914-0.11924-0.10442-0.18027-0.29034-0.50553-0.67733-1.0386-1.1709-1.5448-0.121-0.12841-0.25859-0.24589-0.39194-0.37006-0.14464-0.1143-0.28081-0.24095-0.4385-0.34749-0.29986-0.23036-0.63535-0.43321-0.98707-0.62371-0.3556-0.18591-0.73695-0.34149-1.1342-0.4766-0.40111-0.12559-0.81598-0.23495-1.2464-0.31044-0.43074-0.0695-0.87418-0.10936-1.3236-0.1203-0.45014-0.0014-0.90593 0.02222-1.3631 0.07267-0.91299 0.11536-1.8284 0.34255-2.7037 0.68615-0.22154 0.07761-0.43533 0.17815-0.65229 0.26776-0.21096 0.10266-0.43039 0.1965-0.63041 0.30762l-0.30586 0.16122-0.31538 0.1838-0.15734 0.09208-0.13829 0.09102-0.2921 0.19191c-0.76729 0.52282-1.5007 1.083-2.1223 1.7212-0.62195 0.635-1.186 1.2905-1.6514 1.9657-0.11853 0.16686-0.22049 0.34114-0.3295 0.50835-0.05362 0.08396-0.10619 0.16757-0.15875 0.25047-0.04798 0.08572-0.0956 0.17039-0.14252 0.2547-0.09349 0.16898-0.19297 0.33196-0.27728 0.49848-0.08114 0.16792-0.16087 0.33302-0.23883 0.49495-0.0829 0.15981-0.14323 0.32491-0.20884 0.48472-0.0628 0.15981-0.13018 0.31468-0.18732 0.46884-0.05256 0.15522-0.10407 0.30727-0.15381 0.45473-0.0254 0.07444-0.05009 0.14711-0.07479 0.21908-0.02152 0.07232-0.03845 0.14499-0.05786 0.2152-0.07232 0.28504-0.15134 0.55104-0.19368 0.80222-0.04515 0.25012-0.10548 0.48119-0.12206 0.6918-0.02681 0.21096-0.05045 0.3997-0.07055 0.56374-0.0088 0.16651-0.01623 0.30833-0.02223 0.42333-0.01376 0.23036-0.02046 0.35278-0.02046 0.35278s-0.01305-0.12206-0.03669-0.35137c-0.01129-0.11465-0.02469-0.25576-0.04057-0.42228-0.0025-0.16863-0.0049-0.36266-0.0074-0.57961-0.0099-0.21978 0.02081-0.4572 0.03457-0.71967 0.0074-0.26388 0.06385-0.54222 0.10689-0.84314 0.01199-0.0755 0.02187-0.1524 0.03669-0.22966 0.01693-0.07691 0.03457-0.15416 0.05256-0.23283 0.03493-0.15804 0.07267-0.32103 0.10936-0.48754 0.04092-0.16651 0.09878-0.33267 0.15099-0.50447 0.05327-0.1718 0.10266-0.35031 0.17533-0.52352 0.24977-0.7112 0.60925-1.4489 1.0506-2.1943 0.44944-0.74048 0.99907-1.4781 1.6454-2.1731 0.1651-0.17004 0.33196-0.34114 0.50024-0.514 0.1785-0.16263 0.35842-0.32561 0.5394-0.48966 0.17674-0.16969 0.37959-0.31115 0.57044-0.46849l0.29316-0.2286 0.31009-0.2092 0.3115-0.2099 0.1651-0.11007 0.15593-0.09419 0.31327-0.18732 0.33831-0.1845c0.22578-0.12841 0.45544-0.2293 0.68368-0.3436 0.23389-0.1009 0.4639-0.21131 0.70379-0.2988 0.47413-0.18944 0.96661-0.33232 1.4594-0.46002 0.49424-0.12382 0.99801-0.2025 1.5-0.25894 0.50236-0.04939 1.0051-0.06103 1.5004-0.03845 0.4953 0.02928 0.98284 0.09137 1.4563 0.18591 0.47131 0.10301 0.93028 0.23036 1.3631 0.40076 0.4311 0.17533 0.84102 0.37394 1.2203 0.60219 0.75741 0.45614 1.3924 1.0153 1.8775 1.6066 0.49142 0.58702 0.84067 1.197 1.0858 1.7575m-5.0281 13.9c-5.3809 3.1193-11.74 1.7639-14.203-3.0279-2.4638-4.7914-0.09842-11.205 5.2814-14.325 5.3809-3.1196 11.74-1.7642 14.203 3.0275 2.4638 4.7918 0.09878 11.205-5.2814 14.325m-5.6575-23.413c-1.1987 0.61419-2.3435 1.4302-3.4308 2.3837-0.8322-0.54575-1.4877-1.3254-1.4968-2.3908-1.863 0.09207-1.7046 2.8007-1.433 3.4537 0.09596 0.22966 0.38029 0.66781 0.70979 1.1398-5.1837 5.7464-8.8808 14-11.042 16.357-2.8783 3.139-14.677 8.5898-14.677 8.5898-0.63606 0.048-5.3097-2.1357-7.2517-3.1655 0.58914 2.8487 1.2848 5.473 1.6947 7.6038 0 0-4.5328 6.5528-10.793 15.623l15.475-13.299c19.632-14.833 22.184-10.715 28.33-9.7914 6.4883 0.97544 14.351 1.8902 18.391-8.1629 4.0397-10.053-7.4105-19.041-14.476-18.341" fill="#000"/>
        <path d="m9.5293 123.78-28.463 52.516 28.756-52.356zm6.1468-11.658c0.14534-0.24588 0.28187-0.49565 0.42298-0.7433 0.14182-0.24694 0.28011-0.49706 0.41099-0.75071 0.27129-0.502 0.52388-1.0128 0.77823-1.5244 0.24448-0.5147 0.49107-1.0305 0.71755-1.5547 0.11783-0.26 0.23001-0.52211 0.3369-0.78705 0.10866-0.26423 0.2219-0.5267 0.32173-0.79446 0.21167-0.53022 0.39934-1.0707 0.58561-1.6108l0.26211-0.81633 0.24236-0.82268c0.15311-0.55139 0.29528-1.1056 0.42192-1.6637 0.12524-0.55809 0.23566-1.1201 0.3302-1.6852 0.04868-0.28222 0.08431-0.56656 0.12735-0.84914 0.0374-0.28469 0.06703-0.56938 0.1009-0.85372 0.02258-0.28575 0.04692-0.57115 0.06421-0.8576 0.0099-0.28646 0.03175-0.5722 0.0321-0.85972 0.0035-0.28646 0.0095-0.57326-7.06e-4 -0.86007l-0.01023-0.43074-0.0254-0.42968c-0.01094-0.28646-0.04763-0.57221-0.07197-0.85796-0.03669-0.28469-0.06773-0.57044-0.11712-0.85372-0.08714-0.56832-0.21731-1.1289-0.36583-1.6849-0.14817-0.51188-0.32173-1.0167-0.52846-1.5081 0.16933-0.09419 0.32103-0.20532 0.46602-0.32244 0.17639-0.1457 0.34219-0.30057 0.50094-0.46108 0.3175-0.32173 0.60925-0.66358 0.88759-1.0146 0.55527-0.70309 1.058-1.4446 1.5212-2.2091 0.23072-0.38241 0.44803-0.77294 0.65229-1.1698 0.20461-0.39723 0.39617-0.80116 0.56797-1.2132 0.17251-0.41204 0.32738-0.83256 0.44203-1.2647 0.05715-0.2159 0.10301-0.43498 0.12982-0.65722 0.02611-0.22119 0.03387-0.44697-0.0028-0.6671 0.05045 0.44485-0.05574 0.88653-0.18027 1.3099-0.12735 0.42439-0.29351 0.83679-0.47731 1.2404-0.36759 0.80751-0.81068 1.579-1.2816 2.3301-0.47343 0.7493-0.98637 1.4746-1.548 2.1586-0.28116 0.34043-0.57397 0.67134-0.88865 0.9779-0.15699 0.1524-0.31962 0.29916-0.48895 0.43321-0.17004 0.13264-0.3489 0.25471-0.53411 0.33867l-0.12171 0.05539 0.05221 0.12665c0.2152 0.51964 0.39899 1.052 0.55104 1.5946 0.14182 0.54539 0.266 1.0961 0.34854 1.6542 0.04586 0.27799 0.07479 0.55951 0.10936 0.83926 0.02152 0.28116 0.05609 0.56198 0.06562 0.8442l0.02152 0.42298 0.0078 0.42404c0.0085 0.28222 3.53e-4 0.56444-0.0049 0.84702-0.0018 0.28222-0.02505 0.56515-0.03669 0.84702-0.01834 0.28222-0.04657 0.56374-0.06773 0.84561-0.03175 0.28046-0.05821 0.56268-0.09349 0.84384-0.04057 0.2794-0.07444 0.56056-0.12065 0.84032-0.08996 0.55809-0.19509 1.1148-0.31609 1.6683-0.12136 0.55386-0.25929 1.1031-0.40711 1.6503l-0.2353 0.81738-0.25506 0.81174c-0.17992 0.53799-0.36724 1.0735-0.56409 1.6055-0.09419 0.2674-0.20179 0.53057-0.30409 0.79516-0.1016 0.26529-0.20814 0.5281-0.32032 0.78916-0.21449 0.52529-0.44979 1.0425-0.68368 1.5607-0.24306 0.51329-0.48578 1.0276-0.74577 1.5328-0.127 0.25435-0.254 0.50835-0.38841 0.75918-0.133 0.25117-0.26106 0.50482-0.39864 0.75388-0.27376 0.49883-0.54786 0.99731-0.8375 1.4877-0.28187 0.49389-0.58138 0.97825-0.87348 1.4679 0.31115-0.47767 0.63571-0.94615 0.93169-1.4333 0.30515-0.48119 0.59478-0.97155 0.88547-1.4623m8.5926-36.944c0.08502 0.16439 0.16757 0.33196 0.23989 0.50271 0.07091 0.17145 0.13864 0.34537 0.19015 0.52388 0.10689 0.3549 0.17427 0.72778 0.13617 1.1021 0.02999-0.18486 0.03528-0.37394 0.02222-0.56198-0.01693-0.18768-0.04516-0.37536-0.09419-0.5581-0.04339-0.18309-0.10336-0.36301-0.16792-0.5401-0.06562-0.17745-0.1404-0.35066-0.21943-0.52211-0.08114-0.17074-0.16757-0.33867-0.25859-0.50412-0.09278-0.16475-0.18803-0.32773-0.29069-0.48613-0.20602-0.31715-0.42898-0.6223-0.66569-0.91687-0.11748-0.14781-0.23883-0.29316-0.36512-0.43356-0.12418-0.14288-0.25365-0.28046-0.38453-0.41663-0.13229-0.13547-0.26776-0.2674-0.40534-0.39758-0.13899-0.12841-0.27975-0.25576-0.4258-0.37712-0.14534-0.12206-0.29069-0.24342-0.4452-0.35489-0.1517-0.11395-0.30903-0.22119-0.46814-0.32561-0.15946-0.10442-0.32314-0.20179-0.48895-0.29598-0.13159-0.07338-0.26564-0.14182-0.40181-0.20779l0.08114-0.38382 0.12876-0.48754c0.04692-0.16157 0.10231-0.32032 0.15275-0.48048 0.05327-0.15981 0.11712-0.31503 0.17498-0.47308 0.12524-0.31221 0.26106-0.62054 0.4124-0.9211 0.15099-0.30057 0.31186-0.5969 0.48295-0.88759 0.08255-0.14676 0.17357-0.28822 0.26458-0.43039 0.0882-0.14393 0.18344-0.28363 0.27975-0.42157 0.09455-0.1404 0.19156-0.27799 0.29422-0.4124 0.10019-0.13582 0.20144-0.27164 0.30798-0.40252 0.20849-0.266 0.42792-0.52282 0.65334-0.77505s0.45932-0.49671 0.69815-0.7366c0.24024-0.23883 0.48824-0.46884 0.73872-0.69709l0.38065-0.3369 0.38947-0.32667 0.39864-0.31609 0.40605-0.30586c0.27446-0.19967 0.55351-0.39299 0.83749-0.57926l0.42968-0.2727 0.43674-0.26211c0.29422-0.17004 0.59196-0.33443 0.89535-0.48789 0.3041-0.15169 0.61172-0.29845 0.92675-0.42721 0.31327-0.1337 0.63288-0.25153 0.95673-0.36019-0.32914 0.0889-0.65864 0.18274-0.97896 0.30268-0.32244 0.1143-0.63818 0.2473-0.9518 0.38594-0.31256 0.13935-0.61983 0.29104-0.92463 0.44873-0.30268 0.16016-0.59902 0.33338-0.89253 0.51118-0.29175 0.17992-0.57926 0.36654-0.86219 0.56056l-0.42051 0.29774-0.41204 0.30833-0.40428 0.31962-0.39546 0.33055c-0.25894 0.22648-0.51153 0.45932-0.75777 0.69956-0.24483 0.2413-0.48613 0.48719-0.7172 0.74189-0.23142 0.25435-0.45791 0.514-0.67275 0.78317-0.11042 0.13229-0.21484 0.26988-0.31821 0.40746-0.10513 0.13617-0.20638 0.27517-0.30409 0.41804-0.10019 0.14005-0.19826 0.28187-0.29069 0.42827-0.09419 0.14429-0.18909 0.28857-0.27446 0.4385-0.18062 0.29422-0.34325 0.59937-0.4946 0.91017-0.15169 0.3108-0.28892 0.62865-0.41451 0.95074-0.05785 0.16334-0.12206 0.3242-0.17533 0.4886-0.05045 0.16545-0.10513 0.32985-0.15205 0.49636l-0.12841 0.50306-0.10266 0.50941-0.02223 0.11218 0.1076 0.05009c0.16686 0.07726 0.33126 0.15804 0.49212 0.24589 0.16087 0.08925 0.31997 0.18203 0.47519 0.28152 0.15522 0.09948 0.30833 0.2025 0.45755 0.31186 0.14958 0.10724 0.29669 0.21872 0.44203 0.33338 0.14499 0.115 0.28575 0.23495 0.4258 0.35666 0.13829 0.12277 0.27481 0.24871 0.40781 0.37782 0.13229 0.12982 0.26352 0.26141 0.38911 0.39758 0.12771 0.13476 0.25153 0.27376 0.37183 0.41522 0.24024 0.28258 0.46814 0.57644 0.6791 0.8823 0.10478 0.15346 0.2092 0.30762 0.30692 0.46531 0.09701 0.1584 0.19015 0.31926 0.27799 0.48366m16.96-31.397c0.14711 0.30268 0.27587 0.61383 0.39934 0.92569 0.12065 0.31397 0.23072 0.63077 0.33479 0.94932l0.14499 0.48225 0.12876 0.48613 0.11148 0.49036 0.09596 0.49354c0.05609 0.33055 0.11077 0.6611 0.1457 0.99448 0.0441 0.33196 0.06068 0.66675 0.08996 1.0001 0.01517 0.33479 0.03598 0.66851 0.03281 1.0037 0.0088 0.33514-0.0081 0.66957-0.01729 1.0044-0.02222 0.33408-0.03739 0.66922-0.07479 1.0015-0.03563 0.33338-0.06879 0.6671-0.12418 0.99766-0.0448 0.33161-0.10442 0.66181-0.16863 0.9906-0.05644 0.33055-0.13864 0.65687-0.20602 0.98496-0.07549 0.32632-0.09419 0.67098-0.17709 0.99589l-0.20038 0.99095-0.02222 0.07408-0.05045 0.03598 0.32314 0.56868c0.13159 0.19403 0.2279 0.39793 0.34925 0.59831 0.12347 0.20002 0.22507 0.40605 0.33443 0.61419 0.11007 0.20743 0.21837 0.4131 0.31538 0.62759 0.09878 0.21308 0.20461 0.42192 0.29633 0.63888l0.28116 0.64664 0.25647 0.65758c0.08467 0.21978 0.15663 0.4445 0.23566 0.66604 0.08185 0.22119 0.14288 0.44838 0.21449 0.6731 0.07232 0.22472 0.12982 0.45297 0.19085 0.68051 0.06385 0.22719 0.11536 0.45685 0.16651 0.68721 0.05644 0.22966 0.10125 0.46038 0.14358 0.6925 0.04868 0.23107 0.07867 0.46461 0.11218 0.6985 0.03951 0.23319 0.04762 0.46849 0.07303 0.70344 0.0088 0.11748 0.0085 0.23566 0.0127 0.35348 0.0042 0.11783 0.0088 0.23601 7.05e-4 0.35384-0.0067 0.11712-0.0053 0.23636-0.0187 0.35313l-0.05045 0.35172 0.07056-0.34854c0.02081-0.11712 0.0261-0.23601 0.03986-0.35419 0.01588-0.11818 0.01729-0.23707 0.01764-0.35595 0.0011-0.11924 0.0071-0.23848 0.0028-0.35666-0.01482-0.23707-0.01341-0.4759-0.04233-0.71191-0.02328-0.23707-0.04374-0.47413-0.08255-0.70873-0.03281-0.23601-0.06703-0.47166-0.11536-0.7045-0.04445-0.23354-0.09031-0.46743-0.14887-0.69815-0.05539-0.23142-0.10724-0.4639-0.17498-0.69215-0.06562-0.2286-0.12171-0.46002-0.19791-0.6858-0.07373-0.22613-0.1404-0.45473-0.22013-0.67945l-0.24306-0.67239-0.26776-0.66287c-0.08996-0.22049-0.19791-0.43321-0.29598-0.65088-0.09666-0.21802-0.20849-0.42898-0.31856-0.64064-0.10866-0.21237-0.21766-0.42474-0.34078-0.62971-0.12241-0.20461-0.23283-0.41698-0.36477-0.6163l-0.34643-0.53658 0.28152-0.89994c0.08749-0.32844 0.18486-0.65405 0.26423-0.9846 0.07479-0.33161 0.16051-0.66075 0.21519-0.99695 0.0628-0.33408 0.12453-0.66887 0.16722-1.0061 0.05292-0.33584 0.08608-0.67451 0.11994-1.0132 0.03422-0.33867 0.04904-0.67839 0.06809-1.0181 0.0063-0.34043 0.02081-0.68016 0.0088-1.0209 0-0.34008-0.02399-0.68016-0.04269-1.0195-0.03034-0.33867-0.06174-0.67769-0.1143-1.0139-0.04375-0.33726-0.10795-0.67169-0.17357-1.0054l-0.11042-0.49777-0.127-0.49424-0.14323-0.4886-0.1591-0.48366-0.17498-0.47837-0.19685-0.4699c-0.13899-0.30974-0.28187-0.61736-0.44344-0.91546-0.31821-0.59761-0.67592-1.1779-1.1158-1.6919 0.20602 0.26741 0.38453 0.55457 0.55457 0.8449 0.17145 0.28998 0.32632 0.58879 0.47096 0.89218m-26.697 74.937c-1.3116-0.39652-2.7012 0.34819-3.0977 1.6595-0.08467 0.28045-0.11395 0.56303-0.10054 0.83961l4.8366-0.89818c-0.24553-0.74153-0.83502-1.3582-1.6383-1.6009m-1.4379 4.7572c1.3116 0.39617 2.7012-0.34855 3.0977-1.6602 0.08467-0.28011 0.1143-0.56269 0.10054-0.83891l-4.8366 0.89747c0.24589 0.74224 0.83467 1.3589 1.6383 1.6016m3.7373-1.4668c0.50306-1.6641-0.44168-3.4269-2.1064-3.93-1.6637-0.50271-3.4272 0.44203-3.9299 2.1061-0.50306 1.6644 0.44168 3.4272 2.1061 3.9303 1.6641 0.50271 3.4272-0.44203 3.9303-2.1064m0.65934 0.19967c-0.61313 2.0313-2.7577 3.1799-4.7886 2.5661-2.0316-0.61384-3.1806-2.7577-2.5672-4.789 0.61383-2.0313 2.7587-3.1806 4.79-2.5672 2.0309 0.61454 3.1799 2.7587 2.5658 4.79m6.7229-15.822c-1.4605-7.0598-2.2606-15.498 3.6004-21.227 4.7061-4.5988 17.082-5.2719 18.399-14.684 1.0552-7.5346-2.5001-10.113-2.1795-14.446 0.35384-4.7798 0.6103-12.992-3.9091-15.344-0.31644-0.16545-0.58385-0.26106-0.80821-0.30445 0.11889 0.04727 0.24553 0.10442 0.38206 0.17568 4.5194 2.3516 4.2626 10.564 3.9091 15.344-0.32068 4.3325 3.2339 6.9106 2.1791 14.445-1.318 9.4125-13.693 10.085-18.399 14.684-8.2264 8.0395-3.3309 21.419-1.9061 28.83 0 0-44.914 64.934-47.258 68.938-0.80328 1.3727-1.469 2.317-1.8898 2.7753-0.3302 1.1176 0.72072 0.0787 2.3163-2.6458 0.46249-0.79022 2.5844-3.9557 5.6914-8.5259 0.98354-1.446 2.0652-3.0321 3.2244-4.7293 0.25329-0.37077 0.50906-0.74542 0.76941-1.1264 0.35454-0.51823 0.71614-1.0467 1.083-1.5822 0.25541-0.37395 0.51329-0.75107 0.7747-1.1328 0.43427-0.63359 0.8763-1.2795 1.3243-1.9332 0.25753-0.37501 0.51647-0.75318 0.77717-1.1335 0.248-0.3616 0.49777-0.72566 0.74895-1.0922 0.33055-0.48225 0.66428-0.96802 1.0008-1.4584 0.25753-0.37642 0.51682-0.75318 0.77788-1.1335 6.7063-9.7677 14.293-20.774 20.294-29.468 6.26-9.0699 10.793-15.623 10.793-15.623-0.40958-2.1304-1.1056-4.7547-1.6947-7.6031m3.0357-30.636c-1.4478-1.549-2.1516-3.5504-2.1477-5.619-0.01764 0.09701-0.03422 0.18662-0.04657 0.26-0.03951 0.20532-0.05962 0.31468-0.05962 0.31468s7.06e-4 -0.11148 0.0018-0.32032c0.0018-0.10407 0.0035-0.23283 6e-3 -0.38418 0.0028-0.07585-0.0021-0.15699 0.0078-0.24377 0.01129-0.08643 0.02293-0.17886 0.03563-0.27622 0.02681-0.19509 0.0508-0.41451 0.0889-0.65123 0.05292-0.23142 0.11677-0.48119 0.18239-0.75036 0.02434-0.08043 0.0501-0.16439 0.07691-0.24836 0.46672-1.8464 1.4859-3.6329 3.0392-5.0846 2.6931-2.5178 6.2819-3.375 9.3303-2.5389-3.1344-1.0418-6.9374-0.22613-9.7568 2.4098-3.9321 3.6763-4.4619 9.4978-1.1846 13.003 1.0329 1.1053 2.3213 1.8471 3.7236 2.2317-1.2372-0.41134-2.37-1.1105-3.2971-2.1026m-48.283 89.474c-3.9338-1.2686-7.8613-2.5054-11.644-3.9282-1.8902-0.71402-3.7433-1.4746-5.5365-2.3033-0.4512-0.20214-0.89182-0.42192-1.3356-0.63041-0.43815-0.22119-0.87948-0.43145-1.3106-0.65969-0.86854-0.44098-1.7156-0.90664-2.5492-1.3801-1.6626-0.95427-3.2463-1.9816-4.7417-3.0625-1.4968-1.0777-2.8924-2.2313-4.197-3.404-0.32385-0.29422-0.64629-0.5842-0.96061-0.89217-0.15804-0.15099-0.31538-0.30128-0.47237-0.45191-0.14781-0.14288-0.30057-0.30127-0.44909-0.45085-0.59478-0.60819-1.1564-1.2305-1.6778-1.8666-1.0442-1.2711-1.9258-2.6017-2.6067-3.9617-0.68262-1.3589-1.1564-2.7492-1.4065-4.1113-0.25224-1.3617-0.26988-2.6903-0.11536-3.9169 0.1524-1.228 0.48295-2.3527 0.90241-3.3422 0.42016-0.9906 0.92957-1.8471 1.4559-2.5721 1.0527-1.4556 2.1576-2.3756 2.9468-2.9242 0.39688-0.27376 0.71967-0.45791 0.94086-0.57433 0.22084-0.11747 0.33761-0.1718 0.33761-0.1718s-0.11889 0.0497-0.34431 0.15875c-0.22613 0.10795-0.55633 0.2794-0.96661 0.53975-0.8135 0.52141-1.965 1.4012-3.0893 2.8406-0.55809 0.71861-1.1067 1.5752-1.5695 2.5756-0.46108 0.99942-0.84102 2.1449-1.0375 3.4103-0.19332 1.2636-0.21202 2.6441 0.0127 4.0654 0.22119 1.422 0.67557 2.8804 1.3458 4.3074 0.66992 1.4277 1.5575 2.819 2.6031 4.1501 0.52246 0.6664 1.0858 1.3173 1.6835 1.954 0.1517 0.1584 0.30374 0.31821 0.45685 0.47837 0.15346 0.15346 0.30692 0.30868 0.46108 0.46355 0.30374 0.3115 0.6283 0.61877 0.95391 0.92957 2.5957 2.4723 5.6353 4.7523 8.9881 6.7599 3.3524 2.0105 7.0305 3.7042 10.839 5.1862 1.9054 0.74012 3.8421 1.4372 5.7968 2.0941 1.9544 0.65864 3.9222 1.2905 5.8822 1.9311 1.9837 0.6477 3.9617 1.3049 5.9051 2.014 0.19791-0.39264 0.39829-0.79022 0.60149-1.1934l-0.22154-0.0797c-1.947-0.70061-3.9151-1.3469-5.8819-1.9816m16.259 8.375c1.6221 1.0823 3.1196 2.3005 4.4189 3.6657 0.65193 0.6798 1.2633 1.3882 1.8161 2.1297l0.2099 0.27552 0.19861 0.28328c0.12947 0.18803 0.27199 0.37747 0.39017 0.56268 0.12594 0.19579 0.26282 0.39476 0.37994 0.58632 0.11712 0.19297 0.23777 0.38135 0.35172 0.57679 0.92287 1.5628 1.6383 3.1993 2.0849 4.8563 0.44344 1.6556 0.64135 3.3299 0.50941 4.9304-0.062794 0.79939-0.1972 1.5794-0.40605 2.3227-0.21096 0.74365-0.49212 1.4527-0.83256 2.1128-0.67169 1.3282-1.6009 2.45-2.6328 3.3422-1.034 0.8957-2.177 1.5526-3.3048 2.0415-1.1324 0.48052-2.2574 0.78493-3.3147 0.97014-1.058 0.18136-2.0479 0.26211-2.9432 0.27657-0.89676 0.0145-1.6986-0.0359-2.3939-0.10265-0.34854-0.0272-0.66851-0.073-0.96344-0.10693-0.29351-0.0434-0.56021-0.0833-0.79939-0.1192-0.47554-0.0846-0.84032-0.1524-1.0841-0.2074-0.24483-0.0515-0.37112-0.0787-0.37112-0.0787s0.12418 0.0346 0.36548 0.10157c0.24024 0.0702 0.60043 0.16055 1.0717 0.27478 0.94439 0.21417 2.3488 0.49678 4.1709 0.56624 0.91017 0.0325 1.9244 6e-3 3.0194-0.13751 1.0936-0.14429 2.2701-0.4082 3.4749-0.86004 1.2023-0.45477 2.4275-1.1155 3.5627-2.0307 1.1317-0.91369 2.1738-2.0863 2.9489-3.5003 0.38594-0.70626 0.70944-1.4668 0.95744-2.2673 0.24624-0.80152 0.4124-1.6429 0.50059-2.5054 0.17921-1.7265 0.024694-3.5373-0.42898-5.3128-0.4512-1.7773-1.186-3.5211-2.1325-5.1795-0.11712-0.20884-0.24624-0.41628-0.36865-0.62512-0.12488-0.2092-0.25118-0.39864-0.37783-0.60008-0.13159-0.21272-0.27164-0.40216-0.40887-0.60572l-0.20602-0.30021-0.21766-0.29351c-0.57573-0.78811-1.2111-1.5455-1.8983-2.2634-1.3656-1.4436-2.9351-2.7287-4.6221-3.8626-1.6887-1.1335-3.4981-2.1107-5.3629-2.981-0.74295-0.34431-1.494-0.6731-2.2521-0.98848-0.26035 0.381-0.51611 0.75565-0.76941 1.1264 0.8322 0.33972 1.6545 0.6925 2.4638 1.064 1.82 0.84173 3.5726 1.7812 5.1961 2.8628m-22.067-13.572c-4.1356-1.4185-8.1463-2.9725-11.864-4.8112-3.7239-1.8207-7.1536-3.9254-10.134-6.277-0.74754-0.58385-1.4612-1.1896-2.1576-1.7928-0.34255-0.30762-0.67874-0.61136-1.0128-0.91933-0.32667-0.31609-0.66887-0.63395-0.97508-0.94122-1.2591-1.2541-2.3633-2.5788-3.236-3.9673-0.8703-1.3885-1.5169-2.8367-1.8486-4.2856-0.33479-1.4485-0.3489-2.8857-0.09243-4.1871 0.25329-1.3046 0.75777-2.4666 1.3617-3.4526 0.60995-0.98495 1.3162-1.7985 2.0186-2.461 1.4132-1.3254 2.7788-2.068 3.7352-2.4705 0.47978-0.2032 0.86184-0.3249 1.1208-0.39863 0.12912-0.0392 0.22931-0.0614 0.29563-0.0787 0.06632-0.0173 0.10019-0.0258 0.10019-0.0258s-0.03387 7e-3 -0.1016 0.0219c-0.06667 0.0138-0.16757 0.0325-0.2981 0.0667-0.26282 0.0632-0.65052 0.16933-1.1409 0.35525-0.49071 0.18379-1.0834 0.44803-1.7448 0.82691-0.65934 0.37959-1.3899 0.87383-2.128 1.5261-0.7373 0.65052-1.4873 1.4573-2.1491 2.4511-0.65652 0.99448-1.2241 2.184-1.5244 3.544-0.30656 1.3564-0.33408 2.8723-0.02328 4.4048 0.30727 1.5332 0.9405 3.0716 1.8172 4.5321 0.87736 1.463 1.9883 2.855 3.2537 4.1709 0.32314 0.33832 0.64064 0.64629 0.9652 0.97508 0.33161 0.32103 0.67345 0.64417 1.016 0.96732 0.35031 0.31221 0.69638 0.63606 1.0583 0.94544 0.36477 0.30727 0.72496 0.62548 1.1045 0.92534 2.9976 2.4458 6.4544 4.6556 10.212 6.5599 3.7592 1.9068 7.8045 3.5204 11.954 4.9908 4.1508 1.4711 8.4159 2.7848 12.611 4.2464 0.17992 0.0621 0.35807 0.12664 0.53799 0.19014 0.19756-0.39334 0.39829-0.79093 0.60008-1.192-0.23495-0.0819-0.47025-0.16405-0.70591-0.24518-4.2326-1.4538-8.4921-2.763-12.626-4.1942m24.264 10.672c1.8602 1.0901 3.6075 2.3276 5.153 3.7447 1.5399 1.427 2.8723 3.0092 3.9508 4.7508 1.0583 1.7124 1.8613 3.5768 2.3629 5.4614 0.50377 1.8877 0.71438 3.8089 0.63888 5.6663-0.077964 1.857-0.4445 3.652-1.0873 5.2758-0.64347 1.6235-1.5476 3.0773-2.6381 4.2753-1.0897 1.2004-2.3622 2.1368-3.6802 2.8191-1.3254 0.67095-2.6843 1.114-3.9956 1.3641-1.313 0.25012-2.5718 0.33969-3.7349 0.32107-1.1642-0.0138-2.2345-0.11077-3.1937-0.25436-1.9184-0.29284-3.4001-0.69715-4.3995-0.99412-0.50165-0.14401-0.88018-0.27549-1.1366-0.36051-0.25612-0.0847-0.38841-0.12816-0.38841-0.12816s0.12982 0.0505 0.38135 0.14827c0.25188 0.097 0.62406 0.24793 1.1183 0.4184 0.98531 0.34713 2.4486 0.83424 4.3762 1.2065 0.96273 0.18521 2.0433 0.33196 3.2297 0.39328 1.1853 0.0608 2.4786 0.0145 3.8442-0.19717 1.3635-0.21417 2.8004-0.61447 4.2118-1.2876 1.4058-0.67938 2.7824-1.633 3.9765-2.8793 1.1966-1.2404 2.2038-2.7665 2.9171-4.4834 0.71931-1.7159 1.1451-3.6146 1.2661-5.5824 0.06068-0.98425 0.0441-1.9858-0.04939-2.994-0.09737-1.0065-0.27728-2.0175-0.53128-3.0198-0.51153-2.0087-1.3243-3.9694-2.4423-5.8265-1.1021-1.8253-2.5079-3.5422-4.124-5.0387-1.621-1.4965-3.4428-2.794-5.3636-3.9282-2.5111-1.4697-5.1735-2.6741-7.8916-3.7387-0.26141 0.3817-0.51929 0.75882-0.7747 1.1328 0.71614 0.27834 1.4305 0.56233 2.1371 0.85725 2.0271 0.85019 4.0019 1.7928 5.867 2.878m-17.535-11.947c-1.119-0.34925-2.2299-0.70344-3.3334-1.0604-1.1045-0.35419-2.1992-0.7179-3.2822-1.0894-2.1675-0.7433-4.2866-1.5325-6.3391-2.3798-4.1-1.7032-7.935-3.6551-11.307-5.9193-1.6898-1.1254-3.2512-2.3372-4.6994-3.581-0.3683-0.30586-0.70732-0.62971-1.0566-0.94051-0.34643-0.31468-0.68333-0.64805-1.0202-0.96732-0.64664-0.63535-1.2644-1.3007-1.821-1.978-1.1187-1.3536-2.0115-2.7975-2.5647-4.2824-0.54857-1.4827-0.71155-3.0173-0.44097-4.3991 0.26106-1.385 0.91334-2.582 1.6775-3.5451 0.77258-0.96274 1.6538-1.7089 2.5072-2.2881 1.7187-1.1557 3.2918-1.6972 4.3695-1.9593 0.54222-0.12982 0.96661-0.19085 1.2531-0.22225 0.14288-0.0169 0.25224-0.0243 0.32561-0.0296 0.07338-5e-3 0.11007-8e-3 0.11007-8e-3s-0.03704 2e-3 -0.11007 4e-3c-0.07373 2e-3 -0.18309 4e-3 -0.32738 0.0155-0.28822 0.0194-0.71649 0.0631-1.2665 0.17109-0.55069 0.1076-1.2224 0.28364-1.9865 0.56692-0.76341 0.28434-1.6203 0.67945-2.5118 1.2418-0.89076 0.56056-1.821 1.2912-2.6592 2.2648-0.83079 0.96943-1.555 2.2144-1.8778 3.6865-0.07867 0.36794-0.13335 0.74612-0.16334 1.1335-0.02117 0.38629-0.02963 0.7814 0.0032 1.1797 0.05503 0.79693 0.22966 1.6044 0.49424 2.4003 0.53869 1.5921 1.451 3.1193 2.5749 4.5466 0.56303 0.71755 1.1733 1.4072 1.8383 2.0906 0.33161 0.32738 0.65511 0.66287 1.0015 0.99378 0.35137 0.32702 0.69709 0.67098 1.0629 0.9906 1.446 1.3035 3.0265 2.5583 4.7279 3.7352 3.3997 2.3626 7.2683 4.4256 11.411 6.1814 4.1434 1.7611 8.5397 3.2671 13.023 4.6775 2.643 0.83997 5.3167 1.6566 7.9756 2.528 0.19791-0.39335 0.39758-0.78952 0.59902-1.1899-2.7414-0.89218-5.4857-1.7198-8.1876-2.5679m13.09 5.6829c-0.48472-0.1831-0.97155-0.3616-1.4598-0.53728 0.25753-0.37501 0.51647-0.75318 0.77717-1.1335 0.38523 0.13935 0.77117 0.27693 1.1553 0.42086 2.2458 0.85161 4.4672 1.7964 6.604 2.9154 2.1343 1.1169 4.1882 2.4102 6.0321 3.9585 0.92004 0.77435 1.7875 1.6094 2.5785 2.5086 0.79058 0.89782 1.5025 1.8606 2.1325 2.8603 1.2573 2.0359 2.0814 4.2517 2.583 6.4876 0.98989 4.4792 0.68474 9.0385-0.64347 13.013-0.66887 1.9865-1.6044 3.8315-2.7929 5.4155-1.1853 1.5864-2.6137 2.9093-4.1691 3.8855-1.554 0.98104-3.2187 1.6206-4.8443 1.967-1.6277 0.34894-3.2106 0.42803-4.6782 0.35416-1.4704-0.0737-2.8303-0.2927-4.064-0.5781-1.2347-0.28511-2.3449-0.63112-3.332-0.98114-1.9741-0.70337-3.4537-1.4263-4.4538-1.9251-0.49918-0.25287-0.87842-0.45258-1.1321-0.59119-0.254-0.13698-0.38523-0.20711-0.38523-0.20711s0.13406 0.0646 0.3937 0.19152c0.25929 0.12665 0.64629 0.31048 1.155 0.54158 1.0171 0.45929 2.5266 1.1049 4.5067 1.7395 0.99095 0.31295 2.1019 0.61736 3.3278 0.8552 1.2252 0.23562 2.5658 0.41684 4.0016 0.44648 1.4333 0.0311 2.964-0.0923 4.517-0.47199 1.5498-0.37814 3.1221-1.017 4.5731-1.9823 1.4534-0.9598 2.7753-2.2408 3.8654-3.7697 1.0915-1.5268 1.9611-3.2914 2.5668-5.1992 0.60713-1.9071 0.95885-3.9557 1.0393-6.0579 0.07655-2.1015-0.1016-4.2616-0.59584-6.3853-0.49601-2.1174-1.3046-4.2125-2.4867-6.0833-1.2051-1.8824-2.7337-3.5779-4.4909-5.0451-1.7586-1.4676-3.7359-2.7054-5.811-3.7825-2.0765-1.0792-4.2545-1.9974-6.4696-2.83" fill="#fff"/>
    </g>
</svg>
