<svg width="198.14" height="46.64" preserveAspectRatio="xMinYMin meet" xmlns="http://www.w3.org/2000/svg">
    <g transform="translate(-140.93 -391.9)">
        <g transform="matrix(.48415 0 0 .48415 -67.826 298.32)">
            <path d="m635.88 238.2c-62.118-21.799-126.84-44.304-153.81-44.304-34.898 0-54.279 23.923-49.57 55.07 8.8616 58.613 89.577 45.139 83.987 3.7126-5.132-38.033-50.707-34.04-47.412-3.7126 0.77904 7.1687 5.1919 13.077 20.13 13.077 0 0-16.147-4.2128-15.758-16.17 0.6317-19.43 32.236-24.306 38.405 2.8463 6.976 30.707-32.777 41.827-54.848 28.932-32.923-19.233-24.861-67.719 6.5718-76.353 23.864-6.5549 30.369-7.4669 172.3 43.436"/>
            <path d="m635.75 244.69c62.118 21.799 126.84 44.304 153.81 44.304 34.898 0 54.279-23.923 49.57-55.07-8.8616-58.613-89.577-45.139-83.987-3.7126 5.132 38.033 50.707 34.04 47.412 3.7126-0.77904-7.1687-5.1919-13.077-20.13-13.077 0 0 16.147 4.2128 15.758 16.17-0.6317 19.43-32.236 24.306-38.405-2.8463-6.976-30.707 32.777-41.827 54.848-28.932 32.923 19.233 24.861 67.719-6.5718 76.353-23.864 6.5549-30.369 7.4669-172.3-43.436"/>
            <g transform="matrix(.63909 0 0 .63909 236.5 118.89)" stroke="#000" stroke-width="6.7831">
                <path d="m619.97 170.47-10.129 37.803"/>
                <path d="m639.58 176.17-10.129 37.803"/>
            </g>
        </g>
    </g>
</svg>
