<svg width="188.92mm" height="28.288mm" viewBox="0 0 188.92 28.288" preserveAspectRatio="xMinYMin meet" xmlns="http://www.w3.org/2000/svg">
    <g transform="translate(85.582 -38.48)">
        <path d="m-1.1862 52.702c3.1986-0.48773 2.6356-5.0856 0-5.6467-25.001 2.6093-50.672 1.7844-76.565 2.9223 25.769 1.1798 50.797-0.44343 76.565 2.7244z" stroke-width=".75098"/>
        <path d="m12.414 49.88c0 1.8218-1.4065 3.2986-3.1415 3.2986s-3.1415-1.4768-3.1415-3.2986c0-1.8218 1.4065-3.2987 3.1415-3.2987s3.1415 1.4768 3.1415 3.2987z" stroke-width=".76729"/>
        <path d="m19.734 52.702c-3.1986-0.48773-2.6356-5.0856 0-5.6467 25.001 2.6093 50.672 1.7844 76.565 2.9223-25.769 1.1798-50.797-0.44343-76.565 2.7244z" stroke-width=".75098"/>
        <g stroke-width=".26458">
            <path d="m-0.68561 38.517c-3.6835 0.48607-5.8743 6.9781-10.125 4.4961-2.144-2.0699-1.9669-1.0495 0.09163 0.45683 4.8993 3.0898 6.8654-5.9711 11.843-4.1595 4.0436 1.5493 3.9018 7.2123 1.0537 9.9539 4.6511-2.6728 2.4732-11.199-2.8633-10.747zm2.8406 10.916c0.79005 2.377 2.0073 6.2373-1.2599 7.3332-3.2988 1.4326-7.7274-1.1656-9.6668-1.8994 3.0864 2.893 10.259 4.4894 12.187-0.36065 0.54658-1.8002-0.29612-3.7677-1.2599-5.0731z"/>
            <path d="m18.028 38.494c-5.1723 0.20519-6.0553 9.3059-2.0387 10.699-3.4547-2.6749-2.5982-9.979 2.2907-10.074 4.1304-0.12271 6.2648 7.1943 10.56 4.4241 1.2126-0.80706 2.4034-2.6206 0.34362-0.72131-4.6953 3.3814-6.7233-4.7093-11.156-4.3278zm-2.726 12.118c-2.641 3.6452 1.6328 8.3749 5.5436 6.8524 2.1702-0.1193 5.1311-1.5537 6.1391-2.7408-3.4234 2.0203-9.8623 4.4876-11.98-0.52896-0.3678-1.6684 0.67757-3.1202 1.0079-4.6643l-0.41587 0.6336-0.29427 0.44836z"/>
            <path d="m64.024 42.478c6.7432 1.54 4.6035 8.4878 11.705 9.8004 4.5371 1.366 11.55-2.0494 12.429-6.8911-1.1279 7.0199-11.029 9.3334-15.81 5.8322-4.5003-3.3647-3.1649-8.7405-9.86-8.2846-6.2034-0.2021-11.773 4.1971-15.293 9.1538-0.84571 1.1909-2.7511 2.1393-3.3406 3.3385 0.47085-1.3652 1.0985-2.6572 1.8555-3.86 3.6936-5.8685 11.645-9.3369 18.313-9.089z"/>
            <path d="m79.208 64.759c6.7432-1.54 4.6035-8.4878 11.705-9.8004 4.5371-1.366 11.55 2.0494 12.429 6.8911-1.1279-7.0199-11.029-9.3334-15.81-5.8322-4.5003 3.3647-3.1649 8.7405-9.86 8.2846-6.2034 0.20209-11.773-4.1971-15.293-9.1538-0.84571-1.1909-2.7511-2.1393-3.3406-3.3385 0.47083 1.3652 1.0985 2.6572 1.8555 3.86 3.6936 5.8685 11.645 9.3369 18.313 9.089z"/>
            <path d="m63.632 60.438c-3.6004 4.7138-8.6707 7.5763-22.029 0-9.3287-5.8428-13.612-2.2713-18.697-0.1943 5.4666-1.9708 10.933-3.9434 18.327 1.1658 11.757 7.6232 19.033 6.9477 22.399-0.9715z"/>
            <path d="m-46.265 42.478c-6.7432 1.54-4.6035 8.4878-11.705 9.8004-4.5371 1.366-11.55-2.0494-12.429-6.8911 1.1279 7.0199 11.029 9.3334 15.81 5.8322 4.5003-3.3647 3.1649-8.7405 9.86-8.2846 6.2034-0.2021 11.773 4.1971 15.293 9.1538 0.84572 1.1909 2.7511 2.1393 3.3406 3.3385-0.47085-1.3652-1.0985-2.6572-1.8555-3.86-3.6936-5.8685-11.645-9.3369-18.313-9.089z"/>
            <path d="m-61.447 64.759c-6.7432-1.54-4.6035-8.4878-11.705-9.8004-4.5371-1.366-11.55 2.0494-12.429 6.8911 1.1279-7.0199 11.029-9.3334 15.81-5.8322 4.5003 3.3647 3.1649 8.7405 9.86 8.2846 6.2034 0.20209 11.773-4.1971 15.293-9.1538 0.84571-1.1909 2.7511-2.1393 3.3406-3.3385-0.47085 1.3652-1.0985 2.6572-1.8555 3.86-3.6936 5.8685-11.645 9.3369-18.313 9.089z"/>
            <path d="m-45.871 60.438c3.6004 4.7138 8.6707 7.5763 22.029 0 9.3287-5.8428 13.612-2.2713 18.697-0.1943-5.4666-1.9708-10.933-3.9434-18.327 1.1658-11.757 7.6232-19.033 6.9477-22.399-0.9715z"/>
        </g>
        <path d="m-8.731 64.881c6.5825-0.98219 13.022-2.5689 17.994-10.32v1.1727c-4.7952 8.2539-16.387 8.8071-17.994 9.1472z" stroke-width=".75098"/>
        <path d="m27.283 64.881c-6.5825-0.98219-13.022-2.5689-17.994-10.32v1.1727c4.7952 8.2539 16.387 8.8071 17.994 9.1472z" stroke-width=".75098"/>
    </g>
</svg>
