<svg width="1700.8" height="1600" enable-background="new 0 0 1841.389 1732.463" viewBox="0 0 1700.8 1600" preserveAspectRatio="xMinYMin meet" xml:space="preserve" xmlns="http://www.w3.org/2000/svg">
<path d="m114.26 30.041c1.15-14.484 13.733-31.753 38.55-29.904 29.204 4.076 42.908 45.411 8.953 64.39 0.023 60.887 0.07 552.72-5e-3 570.26 38.034 27.832 49.897 75.373 48.848 122.5-16.504 188.41-190.19 324.39-180.68 564.55 1.477 12.405-1.462 120.69 59.234 189.03 41.404 45.424 106.15 65.484 144.66 61.721 0.01-0.217 0.025-0.653 0.035-0.87-101.17-51.399-226.04-227.92-76.517-543.64 63.962-135.2 126.93-191.68 97.933-292.9 25.013 1.679 55.741 13.99 68.385 38.53 37.641 72.201-74.811 159.09-91.294 182.9-0.638 1.483 1.241 1.122 1.804 0.386 66.486-54.828 80.583-14.788 224.16-55.398-2.803 29.004-17.49 60.919-43.306 81.97-40.102 32.437-92.657 27.109-152.85 63.669-24.711 15.401-40.752 35.538-47.473 52.427 4.069-1.374 22.147-11.821 53.51-20.842 109.77-32.011 219.62 2.926 259.84 99.243 73.343 179.04-170.41 316.57-276.35 182.59-34.819-44.759-25.714-103.21 4.652-123.82 1.622-1.177 3.614-1.933 4.761-3.653-30.783-3.947-65.948 51.188-47.226 114.72 38.729 133.52 279.28 176.48 398.26 57.781 38.612-37.569 68.479-108.46 44.547-155.74-18.193-37.729-57.937-36.345-62.804-82.464-2.762-50.859 60.605-60.299 84.303-15.711 0.771 1.285 1.29 2.966 2.857 3.51-7.765-45.051-47.815-113.14-83.839-140.67-0.01-0.227-0.025-0.682-0.035-0.91 30.333-7.572 51.561-4.551 59.704-4.4-37.721-112.28 18.498-176.69 80.517-183.16 27.057-4.285 78.192 10.172 77.007 48.813 0.526 20.185-15.404 39.847-20.195 22.592-1.56-4.961 0.958-21.982-13.669-33.003-15.829-12.263-42.279-8.734-55.245 11.192-55.269 81.238 181.19 219.38 103 317.39 33.196-1.605 52.222 21.494 57.9 45.521-18.135-0.985-21.631-11.204-71.475 71.109-25.625 41.334-60.584 78.848-95.881 105.69-1.518 1.216-3.505 2.121-4.158 4.118 11.689-2.368 46.189-28.835 57.296-37.957 94.629-77.732 128.73-135.38 239.42-110.53 21.531 5.01 30.999 9.577 34.833 10.718-8.894 26.039-24.603 36.121-44.893 42.545-0.114 0.267-0.341 0.801-0.455 1.068 28.557 2.119 53.529 23.403 59.704 50.736 192.24 0.044 384.47 0.025 576.71 0.01 15.283-26.042 52.749-21.042 61.592 5.947 13.052 39.741-43.46 63.559-63.071 24.535-291.08 0.076-576.28-0.056-578.03 0.084-1.33 1.127-1.953 2.828-2.951 4.232-22.205 31.744-58.788 21.901-64.816 18.573 2.645-0.292 5.314 0.049 7.974-0.143 42.13-2.471 40.518-54.133 11.672-72.681-10.145-7.151-30.452-11.674-43.336-12.779-136.14-4.945-250.62 166.13-515.98 168.05 1.288 50.475-52.655 93.797-141.53 83.018-34.4-4.311-23.027-7.397-34.64-3.915-73.552 24.828-155.42-4.746-198.1-56.308-55.492-62.957-83.424-182.37-66.126-297.44 3.442-23.872 15.723-70.315 5.596-122.87-4.835-25.755-15.503-52.649-15.518-78.341-1.172-50.249 19.305-90.939 15.933-118.68-0.198-2.333-0.539-4.657-0.593-6.99 14.591 7.231 41.682 29.066 50.919 62.982 5.006 18.17 2.906 32.105 3.179 35.03 1.463-1.582 2.155-3.658 3.03-5.581 34.931-81.401-63.977-103.57-14.129-222.57 50.281 12.177 83.149 48.884 78.129 111.48-0.45 4.805-1.364 9.551-1.963 14.341 4.373-3.68 46.006-80.086 40.829-149.83-2.328-35.437-11.496-82.418-47.004-80.808-15.512 2.457-19.603 12.066-29.662 15.36-26.231 8.804-40.365-43.123 11.029-60.757 6.946-2.229 14.084-4.331 21.455-4.192 0.01-31.06 0.073-537.77-0.04-562.95-10.829-5.983-17.274-16.301-16.903-32.882m211.38 1546.1c66.063 10.096 95.962-36.85 72.859-69.235-1.117-1.913-3.658-1.577-5.517-2.096-170.09-34.001-211.96-148.23-205.19-199.84 1.73-71.28 57.756-112.69 104.83-103.79 60.029 9.739 75.038 74.317 29.731 83.428-6.238 1.475-20.58 2.308-28.099-4.123-7.742-7.076-7.962-21.503-6.946-31.901-37.145 11.637-45.122 83.882 9.803 110.63 113.07 56.562 191.34-87.317 141.39-172.65-23.058-40.393-81.69-75.012-149.94-74.075-250 7.385-223.61 429.97 37.082 463.65z"/>
</svg>
