<svg viewBox="0 0 279.86 247.59" preserveAspectRatio="xMinYMin meet" xmlns="http://www.w3.org/2000/svg">
    <g transform="translate(121.9 100.41)">
        <path d="m66.21-58.682c-0.47281 1.1337-0.8913 2.2868-1.2515 3.4545-3.2873 10.035-2.1832 21.794 1.4871 32.664 3.7311 10.942 10.53 21.139 18.4 30.768 7.9384 9.6395 17.201 18.675 26.382 28.297 9.1708 9.5469 18.267 19.813 25.644 31.689 6.1224 9.7105 10.853 21.049 11.809 33.447 0.43405 6.2163-0.27415 12.61-2.325 18.733-1e-5 0-1e-5 1e-5 -1e-5 2e-5 -2.0573 6.1414-5.5932 11.847-10.464 16.432-4.9803 4.6054-11.043 7.7431-17.464 9.2512 0 0-1e-5 0-2e-5 1e-5 -6.4073 1.5001-13.005 1.4634-19.252 0.0809-12.473-2.85-23.076-10.4-30.481-20.02-3.888-5.03-6.996-10.48-9.466-16.14-2.324-5.03-4.145-10.236-5.55-15.471-3-11.049-4.447-22.16-5.766-32.915-2.056-16.48-4.01-32.788-7.253-48.618-1e-6 -5e-6 -2e-6 -9e-6 -3e-6 -1.4e-5 -3.234-15.699-7.676-30.992-14.525-44.881-6.878-13.917-16.051-26.609-27.658-35.972-11.564-9.319-25.592-15.657-39.735-16.601-9.2559-0.70443-18.769 0.93409-27.449 4.4547-2.0902 0.8552-4.135 1.821-6.1191 2.8906 1.7387-1.5429 3.5891-3.0085 5.5399-4.3806 6.6438-4.6498 14.477-8.2428 23.038-10.154-8.5546-0.1957-17.205 1.289-25.329 4.26-9.9012 3.6286-19.063 9.482-26.363 17.182-7.306 7.6945-12.739 17.227-15.895 27.484 0 4e-6 -1e-5 8e-6 -1e-5 1.2e-5 -3.1525 10.258-4.0422 21.285-2.2919 31.958 1.7478 10.674 6.1287 20.941 12.501 29.806 1e-5 4e-6 1e-5 7e-6 1e-5 1.1e-5 6.372 8.8655 14.761 16.367 24.501 21.524 9.7415 5.1547 20.753 7.9213 31.853 8.2093 11.1 0.29152 22.334-1.8936 32.518-6.6178-10.021 5.059-21.257 7.657-32.527 7.7351-11.269 0.08483-22.614-2.349-32.853-7.332-5e-6 -3e-6 -1e-5 -5e-6 -1.5e-5 -8e-6 -10.233-4.9944-19.212-12.466-26.177-21.51 0-2e-6 -1e-5 -4e-6 -1e-5 -6e-6 -6.9724-9.0384-11.956-19.682-14.213-31.006 0-5.5e-6 -1e-5 -1.11e-5 -1e-5 -1.66e-5 -2.2393-11.328-1.7136-23.147 1.3167-34.304 3.0187-11.16 8.5521-21.697 16.312-30.464 7.7759-8.7525 17.629-15.567 28.482-19.954 6e-6 -2e-6 1.1e-5 -4e-6 1.6e-5 -6e-6 10.848-4.4005 22.734-6.3888 34.569-5.5 17.853 1.4188 34.807 8.9489 48.504 20.186 2.1694 1.779 4.2609 3.6403 6.2749 5.5753 10.123 10.817 17.839 23.478 23.439 36.75 6.634 15.706 10.478 32.186 12.889 48.652 0 3e-6 0 6e-6 1e-6 9e-6 2.4336 16.58 3.4997 33.186 4.6315 49.745 0.74064 10.797 1.5174 21.6 3.8123 32.229 0.59094 2.7398 1.2882 5.4718 2.1103 8.1726-0.24259-2.9037-0.34145-5.7865-0.332-8.635v-2e-6c0.04154-11.059 1.7219-21.719 3.3225-32.751 0.13304-0.90076 0.26617-1.8023 0.39916-2.7047 0.06229 0.88089 0.12442 1.7609 0.18659 2.64 0.79459 10.765 1.5198 21.112 3.6547 30.849 1e-6 3e-6 2e-6 5e-6 2e-6 8e-6 2.1685 9.6978 5.4942 19.001 11.055 26.53 5.5191 7.4455 13.18 13.61 21.876 15.745 4.3402 1.1114 8.9475 1.3498 13.297 0.47741 4.3383-0.86571 8.5434-2.7938 11.874-5.6845v-1e-5c3.3191-2.8233 5.9106-6.7294 7.5712-11.044 1.6648-4.3263 2.3444-9.1522 2.2011-14.012-0.0308-1.2547-0.12185-2.51-0.26802-3.7642-1.3267-8.424-5.1393-16.61-9.8548-24.221-6.66-10.705-15.31-20.229-24.33-29.533-9.066-9.337-18.596-18.507-27.21-28.735-8.614-10.197-16.248-21.617-20.913-34.482-4.6879-12.891-5.9934-27.347-2.0286-40.801 3.8786-12.924 12.695-24.181 24.295-31.041 11.609-6.8435 25.71-9.1167 38.866-6.2774 13.152 2.857 25.033 10.756 32.751 21.761 7.7038 11.015 11.056 24.866 9.25 38.169 1.4732-13.347-2.2445-26.983-10.075-37.589-7.8403-10.599-19.639-17.956-32.35-20.37-12.713-2.4059-26.144 0.1693-36.901 6.9076-4e-6 2e-6 -7e-6 4e-6 -1e-5 6e-6 -10.756 6.7408-18.725 17.572-21.973 29.59-1e-6 4e-6 -2e-6 7e-6 -3e-6 1.1e-5 -3.391 12.518-1.7122 25.964 2.9427 37.923 4.162 10.67 10.649 20.269 18.069 29.07-6.343-9.6645-11.553-19.9-14.176-30.478 0-2e-6 -1e-6 -3e-6 -1e-6 -4e-6 -2.9059-11.824-2.7748-24.191 1.579-34.014 1e-6 -1e-6 1e-6 -2e-6 2e-6 -3e-6 0.48547-1.143 1.0261-2.2596 1.6167-3.3459z"/>
    </g>
</svg>
