<svg width="41.012mm" height="20.983mm" viewBox="0 0 41.012 20.983" preserveAspectRatio="xMinYMin meet" xmlns="http://www.w3.org/2000/svg">
    <g transform="translate(-61.391 -93.771)" clip-rule="evenodd" fill-rule="evenodd" stroke-width=".26458">
        <path d="m66.684 113.75c8.0838-0.84164 18.272 1.2396 25.4-0.26459 0.73739-0.15557 1.2327-0.5072 1.8521-0.79375 1.9711 1.292 5.7113 0.81492 8.4667 1.3229-2.3085 0.93054-6.8405 0.1733-10.583 0.52917-3.6719 0.34898-9.0231 0-14.023 0-5.6616 0-11.537 0.46143-13.758 0-1.5624-0.32465-2.6887-1.4285-2.6458-2.9104 0.08202-2.8422 5.3274-3.3221 3.4396 0.26458-1.5684-2e-3 -0.47784-1.248-0.79375-1.5875-1.1946-0.22436-1.4925 0.44768-1.8521 1.0583 0.16828 1.8362 1.1814 2.3117 2.9104 2.1167 5.4668-0.61674 5.8089-18.76-1.0583-18.785-0.90329 0.15505-1.2512 0.86545-1.0583 2.1167 0.2323 0.55695 1.0255-1.3486 1.8521-0.26458-0.12674 2.6487-2.5516 1.5558-2.9104 0.26458-0.52282-1.8804 1.2869-3.5531 3.9688-2.9104 5.556 2.7167 5.4335 16.147 0.79375 19.844z"/>
        <path d="m80.707 103.7c-0.64214 2.4098-2.7578 4.1825-4.4979 5.5562-1.8568 1.4661-4.2444 2.5956-6.6146 3.4396 0.84032-1.0266 2.1484-1.4811 3.175-2.1167 2.7829-1.7227 5.1538-4.0349 7.1438-6.8792h0.79375z"/>
        <path d="m86.528 108.2c-1.5317 1.9479-4.4969 2.7064-7.1438 3.4396-2.8218 0.78158-5.9624 1.1827-8.9958 1.5875 1.0411-0.80433 2.5318-0.8001 3.7042-1.0583 3.7767-0.83185 8.1023-2.3934 11.112-4.2333 0.61357-0.0844 1.0157 0.0426 1.3229 0.26459z"/>
        <path d="m74.622 100.53c0.28231 4.7027-2.4916 8.6132-5.0271 11.377 0.86757-1.4647 2.3818-3.6674 3.175-6.0854 0.54875-1.6732 0.5461-4.2923 1.8521-5.2917z"/>
    </g>
</svg>
