<svg viewBox="0 0 791.08 1086.6" preserveAspectRatio="xMinYMin meet" xmlns="http://www.w3.org/2000/svg">
    <g transform="translate(-4554.6 -461.63)">
        <path d="m5155.8 1543.8c-16.03-8.0635-26.438-20.431-31.541-37.477-7.9268-26.481-8.5544-50.189-1.8922-71.475 2.7405-8.7561 8.6673-22.007 10.293-23.011 2.4017-1.4844 0.8845 7.5676-2.4528 14.634-5.5814 11.817-6.8597 18.453-6.2333 32.354 0.4937 10.956 2.966 23.5 4.6316 23.5 0.3554 0 1.4561-3.7125 2.4459-8.25 11.05-50.658 32.742-93.306 57.439-112.93 10.44-8.2966 25.804-15.631 42.19-20.141 19.667-5.4131 46.413-4.7936 62.287 1.4429 5.7331 2.2524 6.713 2.3209 6.713 0.4696 0-2.6812-6.1502-6.5704-14.341-9.0687-36.13-11.02-71.619-4.5093-105.1 19.281-9.5458 6.7835-24.167 21.154-31.021 30.488-3.0215 4.1151-5.1988 6.2666-5.6321 5.5655-0.7098-1.1484-6.0289 1.4677-10.29 5.0607-1.5469 1.3045-1.4229 0.6789 0.7008-3.5346 2.5511-5.0615 7.6971-10.38 10.043-10.38 0.666 0 3.4439-2.2722 6.1733-5.0493 4.7329-4.8157 10.878-9.6738 32.683-25.84 5.3464-3.9638 10.024-7.6974 10.394-8.2969 0.3706-0.5995-1.9788 0.8553-5.2207 3.233-14.221 10.43-26.278 19.6-31.093 23.649-5.9724 5.0219-11.962 7.9239-18.344 8.8872-5.5851 0.843-4.7251-0.1301 4.5425-5.1399 15.544-8.4025 36.317-22.192 43.372-28.79 5.4763-5.1215 25.864-28.506 32.392-37.154 6.5445-8.6692 12.736-20.504 12.736-24.344 0-3.7733-2.1216-1.3531-10.134 11.561-8.9913 14.491-14.828 21.752-24.04 29.91-13.439 11.9-30.162 21.649-53.651 31.276-21.431 8.7834-37.929 13.378-58.174 16.199-12.423 1.7314-36.709 1.4525-49.074-0.5634-11.173-1.8216-30.35-7.0807-38.459-10.547l-4.9665-2.123 3.5 3.6971c4.5427 4.7985 13.831 10.853 20.446 13.328 6.1395 2.2971 17.393 4.6592 26.522 5.5668 3.5577 0.3537 6.6702 0.8447 6.9166 1.0911s-4.0324 0.448-9.5086 0.448c-9.2589 0-20.237-1.8784-22.819-3.9045-0.5815-0.4563-3.8137-1.0667-7.1825-1.3564-3.3689-0.2897-7.8689-1.348-10-2.3516-2.1312-1.0036-9.122-6.9014-15.535-13.106-6.4133-6.2048-12.124-11.281-12.691-11.281-3.5068 0-0.6359 7.67 5.1888 13.862 7.1249 7.5747 27.092 23.28 34.186 26.889 19.03 9.6825 47.284 9.4402 89.176-0.7648 4.5095-1.0985 9.3728-2.4435 10.807-2.9889 5.5735-2.119 1.092 1.1838-7.3328 5.4042-13.236 6.6303-21.782 9.326-38.435 12.123-8.3811 1.4076-18.838 3.4042-23.238 4.4369-26.86 6.3043-62.141 4.6921-87-3.9756-11.409-3.978-49.062-22.525-65.75-32.387-7.0125-4.1441-12.75-7.0958-12.75-6.5594 0 2.0485 21.034 21.762 30.054 28.168 8.2511 5.8595 24.056 14.512 34.946 19.132 3.2864 1.3941 19.598 6.2336 28.5 8.4554 3.147 0.7855 3.4415 1.0204 1.381 1.1017-3.4828 0.1375-18.996-2.5951-25.881-4.5588-5.8644-1.6726-22.142-8.3382-27.905-11.427-1.9119-1.0247-3.6281-1.7113-3.8137-1.5258-0.9582 0.9583 2.1897 6.1385 6.1164 10.065 4.8868 4.8867 12.665 9.1089 28.515 15.479 9.6603 3.8825 11.432 4.256 24.5 5.1648 26.521 1.8445 47.605 0.5404 73.925-4.5722 15.943-3.0969 9.2531-0.2809-9.6053 4.0433-29.442 6.7508-52.361 8.0639-87.233 4.9975-60.119-5.2864-86.872-1.6423-109.33 14.892-3.3951 2.4993-6.8351 4.5442-7.6445 4.5442-0.8093 0-2.1665-1.3441-3.016-2.9869-1.3421-2.5951-1.3623-3.4148-0.1545-6.25 3.1508-7.396 12.924-14.104 25.108-17.233 7.0537-1.8112 28.884-2.0789 36.492-0.4474 2.7776 0.5957 5.6122 0.8738 6.2992 0.618 2.3637-0.8802-11.981-6.7602-20.36-8.3457-13.953-2.6403-27.035-0.258-41.5 7.5574-6.8801 3.7172-6.891 3.7299-7.4206 8.655l-0.5304 4.9323-1.8339-3.6011c-1.7208-3.3794-1.7361-3.9338-0.248-9 2.0804-7.083 10.148-16.976 16.142-19.793 8.8725-4.1706 17.188-5.0018 29.576-2.9561 3.828 0.6322 7.2381 0.8712 7.5781 0.5312 1.2546-1.2546-2.8332-5.7432-7.8284-8.5961-2.8294-1.6159-9.4505-4.3659-14.714-6.1112-7.7914-2.5835-10.784-3.1044-16.109-2.8036-7.2329 0.4087-8.7461 1.1632-24.78 12.354-9.4644 6.6059-13.222 7.9409-13.222 4.6978 0-3.1666 6.5952-15.647 11.36-21.497 2.5521-3.1332 4.6402-6.0497 4.6402-6.4809 0-1.3434-13.098-8.9382-21.934-12.718-18.862-8.0688-32.258-9.5235-56.334-6.117-24.486 3.4643-37.516 8.2512-53.232 19.556-9.537 6.8599-13.579 9.0349-16.79 9.0349-3.6651 0-4.7101-3.6713-4.7101-16.547v-11.453h-7c-3.85 0-7-0.2182-7-0.485 0-0.2667 1.3535-2.6848 3.0079-5.3734 8.6949-14.131 5.8062-16.506-12.772-10.501-27.071 8.7509-47.543 27.377-52.176 47.472-1.1765 5.1032-1.3663 16.93-0.2951 18.388 0.4041 0.55 4.5597 1.0047 9.2347 1.0104 14.201 0.017 20.09 4.5482 20.821 16.018 0.5498 8.6355-2.3388 14.963-9.9928 21.89-13.107 11.862-28.192 11.185-41.209-1.848-9.3029-9.3144-14.743-21.921-14.702-34.069 0.056-16.781 7.7662-32.207 24.258-48.536 8.0626-7.983 23.142-18.419 33.208-22.984 15.724-7.1296 36.991-10.809 67.117-11.612 18.475-0.4925 21.326-0.7888 23.71-2.4639 3.3273-2.3382 9.5835-2.459 22.79-0.44 12.161 1.8591 19.292 4.0231 22.582 6.8524l2.6143 2.2487-15.848 0.092c-17.015 0.099-27.27 1.6742-34 5.2245l-3.8482 2.0301 13 0.1185c7.15 0.065 13.9 0.2634 15 0.4406 1.1 0.1771 7.1961 0.6066 13.547 0.9543 30.611 1.6762 62.053 9.5149 97.443 24.293 7.1557 2.9882 13.685 5.6916 14.51 6.0077s-0.075-1.1266-2-3.206c-4.2033-4.5403-14.512-11.418-21.78-14.531-2.9042-1.2439-5.1504-2.3916-4.9915-2.5504 0.5269-0.527 18.195 3.3654 22.739 5.0095 2.457 0.889 6.3945 2.7458 8.75 4.1262 4.5388 2.6599 5.1915 2.0835 2.8243-2.494-3.736-7.2247-18.817-17.056-34.042-22.192-7.2361-2.4411-15.12-2.8328-36-1.7886-6.9337 0.3468-8.6562 0.077-12.923-2.0228-5.8122-2.8606-12.577-9.2938-12.577-11.96 0-2.3058 3.319-3.326 6.6724-2.051 3.7665 1.432 7.3276 1.1556 7.3276-0.5687 0-0.8268-2.9313-5.2102-6.5139-9.7409-9.1991-11.634-14.607-22.388-15.243-30.317-0.2766-3.447-0.203-7.4629 0.1638-8.9242l0.6668-2.6568 8.4537 4.5708c7.219 3.9032 9.2855 4.5708 14.149 4.5708 7.5696 0 17.353 2.5229 25.323 6.5303 6.74 3.3889 17.895 12.981 31.45 27.043 5.2603 5.4572 7.1922 6.9924 6.2004 4.9271-4.2473-8.8444-5.723-22.26-4.5359-41.237 1.9677-31.456 7.5696-40.771 36.222-60.234 12.964-8.8058 23.938-12.094 29.833-8.939 1.818 0.9729 1.2341 1.4398-5.4172 4.3312-14.188 6.168-22.245 14.185-25.949 25.822-1.7436 5.4772-1.9273 8.1234-1.4757 21.256 0.9476 27.555 8.0831 44.912 25.335 61.625 15.044 14.574 33.372 23.882 58.838 29.881 14.438 3.4011 13.671 3.4625 10.627-0.8509-6.3592-9.0106-11.588-23.826-13.001-36.841-0.758-6.978-0.5948-20.177 0.2599-21.032 0.1472-0.1471 2.1565 0.6451 4.4652 1.7606 2.5111 1.2132 7.7035 2.3537 12.924 2.8386 16.727 1.5536 22.978 7.5778 30.734 29.62 1.5483 4.4 3.1017 8.3368 3.4519 8.7485s2.3917-1.0488 4.5368-3.2455l3.9-3.9941-2.2124-2.7544c-17.556-21.856-20.767-39.955-9.9412-56.021 1.5811-2.3463 3.8607-5.2169 5.0656-6.3789 4.2694-4.1173 13.932-9.7837 19.523-11.449 8.655-2.5774 29.168-2.2665 29.168 0.4421 0 0.4456-2.037 4.3745-4.5265 8.7309-7.3799 12.914-10.791 26.829-8.5836 35.017 3.069 11.384 17.074 21.65 35.543 26.052 6.0452 1.4409 23.965 1.9565 29.185 0.8398 16.2-3.4658 30.48-8.8813 42.378-16.071 18.394-11.115 43.591-33.957 60.095-54.478 12.675-15.76 16.565-23.341 25.883-50.438 2.8369-8.25 7.5622-21.3 10.501-29 8.6848-22.758 14.178-43.396 17.022-63.953 5.2883-38.228 3.3621-81.473-5.6104-125.96-7.0287-34.848-19.617-80.045-28.574-102.59-23.692-59.633-70.624-112.97-119.67-136-13.594-6.3836-21.914-9.2714-36.186-12.559-10.229-2.3564-14.204-2.7614-27.46-2.798-23.401-0.0646-35.921 3.8361-47.895 14.922-6.7201 6.2216-10.059 12.838-10.843 21.488-0.6288 6.9339 0.6248 11.018 6.5531 21.348 4.0863 7.1209 4.5703 8.6497 4.9078 15.5 0.2477 5.0297-0.072 8.4455-0.9453 10.1-0.7258 1.375-5.5326 5.3771-10.682 8.8935-9.1607 6.256-9.3108 6.4219-6.9788 7.7145 2.8751 1.5938 6.8264 1.7443 10.374 0.3953 3.6517-1.3883 12.87-10.32 16.381-15.872 3.7146-5.8732 4.4733-10.715 3.1544-20.132-2.0704-14.782-5.9529-21.4-12.554-21.4-3.9265 0-4.57-1.2585-1.2681-2.48 5.1068-1.8891 15.696 2.6091 21.154 8.9862 5.469 6.3894 7.126 12.403 7.1341 25.894 0.01 11.152-0.102 11.727-3.59 19-5.0639 10.559-16.601 21.321-25.79 24.058-6.0187 1.7923-20.35 2.2842-29.133 0.9999-11.091-1.6217-19.294-4.2703-26.306-8.4939l-5.826-3.5092 4.692 8.7229c8.3725 15.565 17.46 24.853 17.46 17.845 0-5.723 4.7733-5.748 13.648-0.0712 5.5829 3.5714 7.3525 4.1607 7.3525 2.4488 0-1.6736 1.9642-1.1291 5.4111 1.5 5.6954 4.3441 6.6674 2.8487 4.0258-6.194-0.5379-1.8414-0.027-2.4505 3.1808-3.7907 7.5243-3.1439 8.2412-2.2709 10.254 12.485 1.7041 12.494-1.2243 14.355-14.851 9.4395-3.904-1.4082-8.5433-2.4207-10.31-2.25-3.2026 0.3097-3.211 0.3254-3.1085 5.8105 0.057 3.025 0.4544 8.7029 0.884 12.618 0.7115 6.484 0.5466 7.6297-1.8529 12.871-1.4487 3.1643-2.6339 6.3528-2.6339 7.0856 0 1.1945-5.5081 4.1829-10.813 5.8665-1.8739 0.5948-1.9326 0.3797-0.9965-3.6543 0.547-2.3574 1.0107-8.1112 1.0304-12.786 0.03-7.2677-0.4228-9.6398-3.1269-16.362-4.1859-10.406-12.556-24.933-21.11-36.638-12.411-16.984-16.763-23.791-18.986-29.696-6.9121-18.364-6.6114-40.508 0.7893-58.123 11.399-27.13 43.898-51.904 78.755-60.034 32.357-7.5472 69.073-3.8871 105.46 10.512 11.919 4.7172 30 13.904 30 15.242 0 0.4208 0.6051 0.7651 1.3448 0.7651 1.6736 0 12.067 6.1974 20.562 12.261 15.437 11.018 37.619 29.66 50.965 42.83 13.487 13.309 16.427 17.078 11.098 14.227-1.2503-0.6692-2.0433-0.7484-1.8356-0.1834 0.6148 1.6721 27.009 30.2 27.942 30.2 1.0911 0 10.98 14.76 17.326 25.86 2.6287 4.5982 11.019 20.839 18.645 36.092 9.5293 19.059 15.618 29.971 19.469 34.893 11.912 15.224 27.068 20.769 37.234 13.623 3.7367-2.6265 2.4381-8.4681-1.8826-8.4681-4.0118 0-3.3446-7.2106 1.0574-11.428 3.9978-3.8301 9.1747-4.446 12.023-1.4302 5.8513 6.1965 7.8381 16.505 4.4456 23.065-2.1374 4.1333-9.8423 12.29-14.089 14.914-3.2049 1.9808-3.3104 2.215-1.766 3.9216 1.4122 1.5604 1.4698 2.351 0.4109 5.6362-0.6775 2.1017-1.4039 4.4486-1.6144 5.2154-0.6505 2.3696-18.6 0.8863-26.142-2.1603-3.3663-1.3598-6.3618-2.2311-6.6566-1.9364-1.3748 1.3748-0.21 5.8822 3.3513 12.968 4.6064 9.1655 5.5292 11.998 7.5699 23.235 1.9801 10.903 3.7253 40.081 2.9852 49.908-0.6191 8.2215-2.1893 21.086-5.4427 44.592-1.1419 8.25-2.9545 22.65-4.028 32-3.5146 30.609-6.6993 48.943-11.638 67-8.9976 32.896-27.514 70.206-49.482 99.704-6.5764 8.8306-7.2041 8.8259 11.202 0.084 31.151-14.795 50.446-32.179 63.204-56.946 7.1425-13.866 9.2369-21.804 9.1932-34.842-0.04-12.029-1.687-18.011-6.8044-24.72-2.8519-3.739-2.6225-4.7799 1.0531-4.7799 4.3189 0 9.1207 2.7664 11.58 6.6713 6.5632 10.422 13.995 25.235 15.388 30.67 1.269 4.9536 1.3556 7.3013 0.4678 12.678-3.6688 22.215-23.997 51.196-43.125 61.48-7.0991 3.8171-20.009 15.02-20.009 17.363 0 1.2474 2.1302 1.8029 10 2.6076 22.361 2.2866 46 8.9146 46 12.898 0 1.6822-9.6511 10.413-13.915 12.589-2.2104 1.1276-6.2865 2.5366-9.0582 3.131l-5.0393 1.0807 2.2563 2.7521c4.2731 5.212 10.298 9.0544 15.989 10.197 4.8207 0.9681 5.789 1.5745 7.5784 4.746 1.1284 1.9999 2.8699 4.5449 3.8701 5.6557 9.0612 10.063 9.3186 10.464 9.3186 14.531 0 8.5905-7.3426 11.46-29.245 11.428l-14.745-0.021 2.8791 2.2532c3.646 2.8534 6.1108 8.9555 6.1108 15.128 0 4.7604-2.444 14.886-3.9834 16.504-1.6913 1.7773-4.7849-1.3653-5.9653-6.0598-2.5759-10.244-10.772-20.549-20.147-25.332-16.063-8.1949-40.507-7.9346-62.131 0.6617-25.811 10.261-45.503 27.21-59.701 51.387-8.7582 14.914-15.621 37.353-16.721 54.675l-0.6465 10.175 5.183 10.612c2.8506 5.8363 6.7705 12.369 8.7109 14.516 3.2824 3.6331 10.508 8.0219 13.206 8.0219 0.6457 0 2.8649-2.5875 4.9314-5.75 2.0666-3.1625 4.0134-5.975 4.3262-6.25 0.3129-0.275 2.0233-2.6375 3.8009-5.25 4.2037-6.178 7.0588-6.1224 11.432 0.2225 4.1295 5.9915 0.05 15.872-8.8504 21.434-3.6937 2.3085-6.1218 2.9974-11.798 3.3471-6.911 0.4258-7.4575 0.2843-16.528-4.2783zm-41.663-203.63c24.544-4.8493 52.343-19.217 83.543-43.179 15.444-11.861 22.75-19.685 30.372-32.526 10.792-18.181 18.571-34.476 31.096-65.14 12.77-31.265 15.948-43.545 19.579-75.673 4.3079-38.116 4.5714-64.936 1.0577-107.65-0.897-10.904-1.3003-20.354-0.8964-21 0.9397-1.5039 3.4322-0.0369 6.1719 3.6326 1.6027 2.1467 2.1344 5.089 2.785 15.41 0.934 14.818 2.2403 25.062 4.8653 38.153 2.6251 13.093 3.4163 13.476 5.148 2.4973 1.8878-11.969-1.0219-50.55-5.3259-70.619l-1.0925-5.0943-1.313 3.819c-3.8197 11.111-8.0625 7.6558-16.9-13.763-3.4857-8.448-13.662-27.931-14.27-27.323-0.1621 0.1621 0.6355 3.1783 1.7726 6.7026 5.9594 18.471 10.456 46.207 12.956 79.908 1.3132 17.703 1.3019 61.214-0.019 72-2.2474 18.357-11.5 59.172-18.008 79.432-21.277 66.245-63.106 120.37-109.37 141.51-16.311 7.4558-27.166 10.341-47.15 12.532-7.6758 0.8417-17.49 1.9967-21.809 2.5667-6.5168 0.86-8.8073 0.7592-13.457-0.5926-6.3427-1.8439-13.247-5.1672-20.955-10.087l-5.2656-3.3608 2.5732 5.0781c2.2024 4.3461 3.3726 5.4316 8.1191 7.5307 7.237 3.2005 20.689 6.3412 31.339 7.3171 11.09 1.0161 22.144 0.347 34.457-2.0857zm83.543-2.59c0-0.275-0.675 0.06-1.5 0.7449-0.825 0.6847-1.5 1.4699-1.5 1.7449s0.675-0.06 1.5-0.7449c0.825-0.6847 1.5-1.4699 1.5-1.7449zm5-4c0-0.275-0.675 0.06-1.5 0.7449-0.825 0.6847-1.5 1.4699-1.5 1.7449s0.675-0.06 1.5-0.7449c0.825-0.6847 1.5-1.4699 1.5-1.7449zm-312.98-6.0051c-3.9289-4.2625-9.8554-11.708-13.17-16.546-16.86-24.608-20.894-45.886-14.232-75.063 0.5877-2.5738 0.4647-2.7568-1.2346-1.8361-6.6056 3.5792-10.439 12.087-11.127 24.695-1.3719 25.146 10.047 52.128 28.047 66.274 6.6452 5.2222 15.217 10.226 17.518 10.226 0.7378 0-1.8731-3.4875-5.8021-7.75zm320.98-0.75c1.8658-1.925 3.1673-3.5 2.8923-3.5s-2.0265 1.575-3.8923 3.5-3.1674 3.5-2.8924 3.5 2.0266-1.575 3.8924-3.5zm35-5.1386c4.675-0.8196 17.45-1.7493 28.389-2.0661 17.233-0.499 19.57-0.7527 17.5-1.8995-6.7776-3.7546-24.572-6.5474-36.389-5.7111-12.521 0.8861-27.914 6.5714-35.5 13.111l-3.5 3.0174 10.5-2.4808c5.775-1.3644 14.325-3.1513 19-3.971zm-26-4.8614c1.2917-1.375 2.1236-2.5 1.8486-2.5s-1.5569 1.125-2.8486 2.5c-1.2918 1.375-2.1237 2.5-1.8487 2.5s1.5569-1.125 2.8487-2.5zm-435.53-18.075c4.9317-0.8626 9.5742-1.9084 10.317-2.3238 2.7759-1.5535-27.164-13.75-30.868-12.575-4.2342 1.3439-3.0843 10.622 1.7917 14.458 3.102 2.4399 6.8295 2.5275 18.76 0.4408zm545.73-77.675c-0.2385-3.4375-0.4922-6.3185-0.5638-6.4022-0.072-0.084-1.2551-0.3087-2.6301-0.5-2.3741-0.3303-2.5156-0.072-2.8099 5.1218-0.3232 5.7046 1.0713 8.0304 4.8148 8.0304 1.3701 0 1.5552-0.9729 1.189-6.25zm-100.7-359.2c-12.532-30.348-30.091-55.764-53.453-77.369-30.611-28.31-53.562-43.588-79-52.591-5.775-2.0439-11.779-4.3696-13.343-5.1681-1.5636-0.7985-3.0419-1.2529-3.2851-1.0096-0.2433 0.2432 6.3754 5.0258 14.708 10.628 12.98 8.7266 15.559 10.096 18.004 9.5589 2.4416-0.5363 4.1922 0.3876 12.135 6.4046 15.52 11.758 22.814 17.791 33.747 27.919 32.065 29.702 55.733 58.485 69.732 84.8 2.4885 4.6779 4.6922 8.3377 4.897 8.1329s-1.6592-5.2922-4.1423-11.305zm-263.06-63.95c5.1255-2.4322 9.6054-7.0624 9.6054-9.9277 0-1.9413-1.4454-3.6798-6-7.2168-5.803-4.5064-5.9989-4.8101-5.9651-9.249 0.057-7.4889 2.562-19.318 4.9427-23.34 2.6201-4.426 1.0999-4.9979-2.658-1-3.5212 3.7463-4.9738 7.5731-5.7886 15.25-1.0439 9.8367-2.3306 14.002-4.3196 13.985-6.2539-0.056-7.5466-8.4339-3.5465-22.985 2.322-8.4464 7.5658-16.15 19.23-28.25 3.0485-3.1625 5.1621-5.75 4.6968-5.75-2.1374 0-13.864 6.5825-20.112 11.29-17.811 13.418-25.425 30.662-21.061 47.698 2.0503 8.003 3.5089 10.284 9.1635 14.33 8.7238 6.2426 15.94 7.9512 21.813 5.1645zm127.14 621.57c-0.863-1.3964 0.2366-3.0486 2.029-3.0486 1.8361 0 1.8506 1.4152 0.03 2.9261-0.9646 0.8005-1.616 0.8393-2.059 0.1225zm19.419-15.977c1.9531-2.7429 4.5517-4.0034 11.385-5.5223 4.2504-0.9448 2.4885 0.8926-4.7239 4.9259-7.7727 4.3468-9.4379 4.4959-6.6612 0.5964zm-8.6806-92.978c-8.1792-3.8275-20.268-17.535-20.268-22.982 0-1.2167 0.6379-3.4273 1.4176-4.9125 3.5383-6.7401 16.216-15.545 19.457-13.514 2.6522 1.6618 2.425 4.7769-0.8167 11.199-4.2948 8.508-4.0883 11.357 1.0959 15.112 5.3592 3.8821 10.951 5.351 17.971 4.7206 7.6931-0.6907 11.733-2.8406 20.203-10.75 10.181-9.508 12.981-15.006 13.476-26.467 0.875-20.221-9.8446-46.492-25.49-62.47-4.0232-4.1087-7.3148-7.548-7.3148-7.6431 0-0.095 0.7158-0.4474 1.5908-0.7832 2.3336-0.8955 6.611 2.5702 13.206 10.7 28.28 34.862 31.474 66.23 9.1691 90.074-6.9779 7.4594-12.498 11.243-22.793 15.62-9.6327 4.0957-15.398 4.6741-20.904 2.0973zm-345.2-49.7c-1.4234-1.5733-5.2147-8.2605-8.425-14.86-5.2168-10.725-5.8847-12.814-6.2856-19.664-0.5154-8.809 1.9969-18.902 6.274-25.205 4.2841-6.3131 4.275-6.3156-9.3004-2.5929-4.5014 1.2344-6.4277 1.4068-6.6815 0.598-0.1961-0.6251-1.1052-3.8365-2.0202-7.1365s-4.1072-11.286-7.0938-17.747c-7.6518-16.553-9.1061-26.069-5.5542-36.344 2.1661-6.2662 5.612-10.673 10.04-12.839 3.2632-1.5966 3.7433-1.5378 15.886 1.9444 6.8866 1.9748 14.755 4.7224 17.485 6.1058 2.7299 1.3833 5.1906 2.288 5.4682 2.0104s0.085-1.7703-0.4285-3.3172c-0.6918-2.0848-2.686-3.718-7.7079-6.3125-10.036-5.1852-10.977-8.1054-5.8905-18.283 4.4763-8.9562 9.6173-16.086 17.418-24.158 8.6471-8.9466 9.8254-9.1638 13.073-2.4092 0.9175 1.9082 2.3066 3.9993 3.0869 4.6468 0.7802 0.6476 5.6545 1.4137 10.832 1.7025 11.075 0.6178 18.211 2.8772 21.524 6.8148 1.9192 2.281 2.3891 3.9827 2.3891 8.6531 0 6.2823-3.4396 20.842-7.4256 31.431-1.3666 3.6309-2.2365 6.6016-1.9331 6.6016 0.3035 0 2.4824-1.6994 4.8421-3.7765 2.3598-2.0771 8.0538-5.9021 12.654-8.5 13.513-7.6322 18.864-6.4112 21.823 4.9794 2.676 10.304 4.3364 14.503 7.6237 19.282 1.8792 2.7319 3.4167 5.332 3.4167 5.7781 0 1.5828-12.623 8.0399-20.006 10.234-8.0956 2.4057-9.3799 3.4148-7.8896 6.1994 0.7927 1.4811 2.2567 1.8056 8.1803 1.8137 8.2209 0.011 16.684 3.1966 18.751 7.0572 2.7737 5.1826-1.7946 18.461-9.0646 26.348-3.8068 4.1299-20.231 16.57-25.656 19.432-5.1179 2.7004-8.0649 0.5295-15.767-11.615-2.7531-4.3409-4.2694-5.9131-5-5.1844-0.5768 0.5752-1.3225 7.4371-1.6571 15.249-0.9082 21.204-3.3388 25.372-18.468 31.67-6.0911 2.5358-9.6244 3.3198-16.818 3.732-9.0325 0.5175-9.1274 0.4985-11.694-2.3387zm35.255-33.411c0.9769-2.8023 1.2028-2.9244 2.7768-1.5 0.9423 0.8528 2.0153 1.5505 2.3845 1.5505s0.6713-7.2 0.6713-16 0.2844-16 0.6319-16c1.9158 0 8.0939 4.9679 13.46 10.823l6.1188 6.6768-0.6757-3.884c-0.6072-3.4903-0.4912-3.8083 1.1447-3.1366 4.0266 1.6533 4.8465 1.5575 5.8268-0.6812 0.8636-1.9723 1.6791-2.2752 5.75-2.1363 2.609 0.089 4.7437 0.078 4.7437-0.024 0-0.1023-2.7-2.1523-6-4.5554-4.3998-3.204-6-4.9978-6-6.7258 0-2.728 2.3441-3.0847 7.6538-1.1647 4.6372 1.6768 5.1249 0.4592 1.4793-3.693-1.7232-1.9626-3.1331-3.682-3.1331-3.8209s1.4-0.3592 3.1112-0.4896c1.7112-0.1303 4.0095-0.7178 5.1074-1.3053 3.6602-1.9589 0.1881-3.1995-10.638-3.8008-5.9398-0.3299-10.994-1.093-11.661-1.7608-1.5839-1.5854 2.1612-5.0202 10.07-9.2353 6.1847-3.2964 7.5111-5.4749 4.0102-6.5861-2.9663-0.9415-2.5255-1.884 3.25-6.9495 4.2046-3.6878 4.9559-4.7883 3.7728-5.527-0.9737-0.608-1.9962-0.4686-3 0.4088-2.9644 2.5912-5.7544 2.7891-7.3431 0.5208l-1.4904-2.1278-11.492 5.0874c-6.3206 2.798-11.98 5.0873-12.576 5.0873-3.3966 0-2.0079-11.02 3.3885-26.889 4.7037-13.832 4.5952-15.98-0.9126-18.074-3.5861-1.3635-6.5975-0.4741-6.5975 1.9485 0 4.9824-2.7917 6.5776-5.284 3.0193-1.281-1.8288-1.5051-1.391-2.6884 5.25-0.71 3.9848-1.5048 7.8076-1.7662 8.4951-1.9554 5.1418-12.202-7.8813-12.292-15.622-0.027-2.3166-0.1547-2.4144-1.079-0.8256-0.5767 0.9912-1.0485 5.3425-1.0485 9.6696 0 6.4552 0.655 9.7644 3.6497 18.437 3.8955 11.282 3.905 14.202 0.049 15.17-2.6168 0.6567-5.4859-0.7452-13.541-6.6169-3.025-2.205-6.3418-4.4935-7.3707-5.0854-2.0766-1.1948-2.2094-1.5085 2.5678 6.069 4.6222 7.3315 3.1907 9.1638-3.5731 4.5738l-3.6551-2.4804 1.5282 2.7304c0.8406 1.5017 2.0752 3.5058 2.7435 4.4535 1.0013 1.4197 0.8769 1.9705-0.7061 3.128-1.8054 1.3201-1.8192 1.5071-0.2279 3.0983 0.9313 0.9314 1.6934 2.0168 1.6934 2.4119 0 0.3952-2.2803 2.0503-5.0673 3.678-4.832 2.822-4.9726 3.0222-3.0292 4.3127l2.0381 1.3532-2.1439 3.7251c-3.4429 5.9822-2.2115 7.3174 6.4585 7.0028 13.784-0.5002 14.146-0.056 7.7776 9.5228l-3.9597 5.9559 2.9629 1.2458c3.4354 1.4445 3.5194 1.9114 1.3283 7.3875-1.0948 2.736-1.3029 4.4173-0.6302 5.09 0.6727 0.6728 2.235-1.2481 4.7295-5.8153 3.7469-6.8599 7.1784-11.32 8.7097-11.32 1.469 0 0.8819 2.5965-1.6743 7.404-4.0071 7.5362-2.7332 12.655 1.5822 6.3578 1.2293-1.794 3.6006-4.7228 5.2694-6.5085 3.3721-3.6081 4.6067-2.9845 4.6331 2.3401 0.019 3.8691 5.2573 19.407 6.5425 19.407 0.3173 0 1.0554-1.3727 1.6402-3.0505zm-10.611-36.172c-0.8562-1.2224-1.5567-2.9226-1.5567-3.7782 0-0.8557-1.0383-3.071-2.3074-4.9231l-2.3073-3.3673 3.4539-6.6045c4.437-8.4842 5.8919-10.105 9.0658-10.101 5.412 0.01 16.338 9.4591 17.468 15.111 1.6227 8.1134 1.496 8.2886-8.8622 12.253-11.071 4.2376-12.855 4.4058-14.954 1.4096zm-46.846-22.786c1.6685-3.2963 0.7636-11.401-2.3405-20.963-1.2321-3.7954-2.3406 2.2278-2.3549 12.795-0.014 10.188 0.1577 11.29 1.7096 10.991 0.9486-0.1827 2.2923-1.4532 2.9858-2.8234zm247.29 69.947c-3.025-0.442-9.775-1.728-15-2.8577s-10.44-2.0599-11.589-2.0672c-1.1491-0.01-7.6517-3.9506-14.45-8.7631-27.956-19.789-39.335-36.033-48.509-69.25-1.8988-6.875-4.4103-15.875-5.5812-20-2.4689-8.6985-11.355-31.997-14.016-36.75-2.2678-4.05-0.9544-4.155 3.4625-0.2769 4.2925 3.7688 8.5761 13.258 10.119 22.416 1.346 7.9881 3.0364 9.3685 6.3359 5.174 2.6884-3.4179 3.5397-10.013 2.1368-16.555-1.5949-7.4366-8.9041-14.76-19.658-19.696-4.2627-1.9565-7.9351-3.7246-8.1609-3.929s0.4065-1.2744 1.405-2.3778c4.9279-5.4452 18.49-0.03 32.425 12.947 2.9808 2.7758 5.6808 5.0228 6 4.9932 0.3192-0.03 1.8423-2.638 3.3846-5.7964 8.6265-17.666 30.344-29.15 55.127-29.15 7.1468 0 14.785 1.9281 21.156 5.3403 4.3385 2.3237 11.679 9.4409 16.152 15.661 2.1759 3.0256 4.6794 6.1013 5.5632 6.8348 4.8205 4.0007 9.6706 17.631 9.6657 27.164 0 5.6705-2.9632 17.15-5.9026 22.889-3.4779 6.7908-10.744 13.481-16.343 15.049-7.868 2.2029-15.687 0.9223-26.164-4.2852-4.9822-2.4764-10.316-5.8187-11.852-7.4275-2.7473-2.8767-2.7968-3.1461-3-16.325-0.199-12.904-0.1064-13.578 2.4999-18.198 3.3201-5.8859 2.8491-6.1971-8.2293-5.4378-5.3363 0.3658-9.3411 1.2767-12.46 2.8342-9.7673 4.878-17.143 15.727-19.99 29.402-0.8014 3.85-2.3731 9.6579-3.4926 12.907-2.7269 7.9123-2.5854 15.103 0.4765 24.224 9.9784 29.725 32.461 49.65 63.72 56.473 9.5529 2.0849 27.428 2.9217 36.334 1.7009 7.7172-1.0578 23.944-6.5508 33.434-11.318 16.935-8.5068 27.216-16.479 46.93-36.392 19.244-19.438 26.251-27.95 32.616-39.628 6.723-12.334 14.454-36.102 14.454-44.439 0-2.8842-3.9051-1.321-4.5997 1.8413-1.8703 8.5146-8.0834 23.089-13.484 31.63-17.815 28.176-26.129 39.598-37.342 51.305-12.743 13.303-26.908 22.949-42.103 28.671-7.679 2.8913-28.529 9.3776-32.471 10.101-1.375 0.2524-6.1 1.1372-10.5 1.9662-9.0939 1.7133-17.587 0.905-26.727-2.5438-4.8651-1.8357-13.479-6.9342-9.5227-5.6363 1.0699 0.351 1.75 0.064 1.75-0.7395 0-1.8979-2.1737-3.5255-14.679-10.991-6.1483-3.6706-12.407-8.127-13.908-9.9031-3.6284-4.2935-9.9885-17.77-11.888-25.189-3.2441-12.672-0.9671-32.104 4.8966-41.788 3.466-5.7245 5.5223-7.3703 8.0136-6.4143 1.4335 0.5501 0.8997 1.5845-3.3233 6.4398-6.8996 7.9327-9.364 13.859-9.9066 23.823-0.5566 10.22 1.5312 17.214 10.119 33.893 4.9424 9.5995 6.9731 12.537 10.175 14.719 6.7898 4.6267 27.083 11.605 28.788 9.9 1.794-1.794-1.531-5.2341-11.37-11.764-11.538-7.6573-16.644-13.014-21.174-22.217-2.6705-5.4244-3.2587-7.8518-3.4149-14.092-0.1851-7.3946-0.1738-7.4321 0.5911-1.9604 1.958 14.006 15.006 28.77 33.968 38.433 23.508 11.98 41.508 11.364 70.112-2.4011 14.338-6.9001 24.569-13.637 38.801-25.553 15.158-12.691 25.7-26.589 31.088-40.99 3.1472-8.4115 2.6176-8.5979-2.7676-0.974-18.21 25.78-44.886 47.549-68.117 55.588-18.498 6.401-41.035 7.9584-54.504 3.7666-11.957-3.7214-23.367-13.039-28.385-23.18-2.3952-4.8408-1.6705-5.6238 2.9794-3.2192 5.3064 2.744 13.698 2.9887 22.574 0.6581 16.683-4.38 23.01-3.7365 28.708 2.9194 3.1783 3.7132 3.5687 3.8737 9.4206 3.8737 8.9939 0 20.318-2.6798 31.703-7.5022 7.4146-3.1407 20.258-12.446 25.178-18.242 5.6455-6.651 10.322-12.862 10.322-13.709 0-0.3227 1.125-2.3688 2.5-4.5469s2.5-4.1263 2.5-4.3293-4.1625-0.6474-9.25-0.9876c-11.496-0.7688-18.774-2.8874-23.166-6.7433-2.7347-2.4011-4.0931-5.1185-7.0482-14.1-3.1808-9.6669-3.5054-11.5-2.477-13.983 0.651-1.5716 1.3608-2.8575 1.5774-2.8575s2.7496 1.3101 5.6287 2.9113c11.95 6.6455 26.642 6.0025 38.735-1.6954 17.541-11.166 28.097-32.859 31.977-65.716 3.7139-31.446 2.0447-56.495-6.1125-91.727-1.5653-6.7608-2.6225-9.2387-4.693-11-4.3271-3.6808-7.284-8.0095-6.9922-10.236 0.5318-4.0586-10.506-20.582-25.908-38.783-11.717-13.847-31.205-30.626-50.979-43.893-9.2763-6.2238-10.148-7.0712-9.369-9.1114 1.7462-4.5748 7.0507-1.665 11.342 6.2215 1.6022 2.9446 2.1103 3.2006 5.5 2.771 3.1521-0.3996 5.0432 0.309 12.121 4.5415 30.207 18.064 59.854 50.583 77.037 84.496 7.4829 14.769 10.705 23.707 16.08 44.605 8.8703 34.49 9.9603 44.194 9.2248 82.116-0.176 9.0717 0.1792 14.398 1.1752 17.626 1.2913 4.1845 1.2616 4.8998-0.3117 7.5-3.0559 5.0505-6.9029 16.464-10.575 31.374-7.2609 29.483-16.159 51.681-30.015 74.882-6.8963 11.547-11.403 16.404-17.712 19.091-3.7039 1.5776-7.8337 4.8015-13.788 10.764-12.038 12.054-23.601 19.439-40.254 25.707-18.97 7.1405-49.858 11.67-64.746 9.4944zm3.8985-85.483c9.2906-1.9382 9.9338-2.2974 15.489-8.6482 9.1213-10.427 12.944-26.515 8.6649-36.463-2.0463-4.7567-8.4328-12.297-9.5061-11.224-0.2659 0.2658 0.399 3.385 1.4774 6.9316 2.5747 8.4677 2.5485 16.134-0.074 21.551-2.4968 5.1577-9.5938 11.878-15.26 14.451-5.2324 2.3755-13.499 2.6081-14.345 0.4037-0.3256-0.8484-2.3535-2.4413-4.5065-3.5396-3.6857-1.8803-3.8766-2.1994-3.2654-5.4574 0.4914-2.6192 0.3061-3.4604-0.7621-3.4604-5.2866 0-5.0829 12.358 0.3319 20.141 2.0046 2.8812 9.1699 6.8577 12.357 6.8577 1.1 0 5.3293-0.6946 9.3985-1.5435zm105.67-43.961c10.234-3.1257 20.995-13.427 28.666-27.443 2.6102-4.7691 2.6496-5.042 0.8654-5.9969-1.5592-0.8344-2.2797-0.3826-4.3422 2.723-3.5479 5.3424-12.147 13.431-18.12 17.046-2.8256 1.7099-8.1447 3.8959-11.82 4.8578-5.6258 1.4724-7.6816 1.5727-13 0.6346-3.4746-0.6128-7.0643-1.417-7.9771-1.7869-2.5995-1.0537-3.5219 3.2359-1.195 5.5573 5.6503 5.6372 16.88 7.4759 26.923 4.4084zm90.503 96.824c-5.6749-3.0084-7.4868-6.418-7.9149-14.894-0.2306-4.5679 0.1093-8.6502 0.874-10.496 2.8163-6.7991 13.873-7.9571 19.187-2.0095 1.5304 1.7127 2.7825 3.9748 2.7825 5.0268 0 3.4301 2.756 5.0557 8.5714 5.0557 4.9449 0 5.7627-0.3352 9.1786-3.7619 2.4703-2.4782 4.6031-6.1466 6.25-10.75 2.2056-6.1654 2.4968-8.5775 2.4733-20.488-0.023-11.469-0.3713-14.478-2.3176-20-6.3721-18.079-19.12-32.059-48.656-53.355-3.4238-2.4688-1.095-2.7121 3.3258-0.3476 9.2524 4.9488 24.75 18.681 34.087 30.203 14.888 18.373 20.405 32.582 20.382 52.5-0.023 20.336-7.2419 32.926-23.456 40.908-8.4611 4.1654-19.44 5.2336-24.767 2.4096zm-175.09-138.19c-10.93-3.4987-24.524-14.226-29.499-23.279-2.5939-4.7199-2.9419-6.3469-2.9624-13.848-0.02-7.4808 0.3042-9.0569 2.7072-13.145 1.5017-2.5545 4.2017-5.8866 6-7.4045 4.5836-3.869 14.643-8.4492 18.559-8.4501 6.9237 0 15.734 6.9977 18.196 14.455 1.6115 4.8828 0.9105 6.1456-3.8323 6.904-4.6056 0.7365-7.6155 4.1262-8.5903 9.6743-1.6214 9.2289 3.3966 13.45 14.937 12.565 17.049-1.3074 38.134-12.255 46.965-24.385 6.8473-9.4059 12.914-29.193 14.168-46.214 0.5043-6.8409 0.2298-8.4182-3.1234-17.947-6.4-18.188-13.237-29.272-20.051-32.505-7.5853-3.5995-20.6-0.7679-32.69 7.1119-3.4008 2.2166-4.7187 1.1399-5.4711-4.4699-0.9521-7.0983 5.2855-17.335 13.077-21.462 3.4544-1.8295 5.7888-2.1878 14.374-2.2061 5.6375-0.0121 10.246-0.247 10.24-0.522-0.03-1.5686-11.016-14.766-16.293-19.572-10.141-9.2371-27.086-19.928-37.955-23.946-3.8145-1.4103-4.5334-2.0286-3.6275-3.1202 1.6304-1.9645 4.9784-1.6853 12.148 1.0131 15.425 5.8059 25.938 12.914 38.584 26.086 34.203 35.627 49.266 97.207 32.194 131.62-5.6433 11.374-19.145 26.644-32.541 36.802-6.5452 4.9631-23.06 13.644-31.872 16.753-4.9307 1.7396-6.8559 1.6685-13.644-0.5042zm3.0154-19.5c0-0.2051-0.9293-2.4737-2.0652-5.0415-1.1358-2.5677-2.3733-7.4145-2.75-10.771-0.7222-6.4351-2.444-8.697-5.6761-7.4567-3.2542 1.2488-0.2463 16.959 4.1844 21.855 1.3553 1.4976 6.3069 2.6075 6.3069 1.4137zm205.9 4.3819c-4.3479-2.298-9.6381-8.1161-10.499-11.547-1.4357-5.7204 4.785-12.462 11.499-12.462 7.1022 0 12.1 3.8967 12.1 9.4343 0 1.9952 0.5003 2.5649 2.25 2.562 3.2232-0.01 8.0623-3.2283 11.384-7.5821 2.508-3.2871 2.9087-4.7671 3.2089-11.851 0.3832-9.0448-2.0121-21.097-6.2812-31.603l-2.5057-6.1666 2.2219 1.4578c1.2221 0.8018 3.5566 3.3402 5.1878 5.6409 2.3882 3.3683 2.9265 5.089 2.7635 8.8337-0.1511 3.4717 0.282 5.1019 1.7082 6.4307 4.3261 4.0304 3.5444 23.059-1.3394 32.604-6.587 12.873-21.563 19.605-31.698 14.249zm15.082-76.53c-3.3246-4.0059-23.647-11.588-46.572-17.376-6.5515-1.654-14.348-4.0195-17.324-5.2567-5.2822-2.1952-5.3446-2.2675-2.5901-3.0042 5.9264-1.585 32.124 1.4139 42.504 4.8655 7.1821 2.3883 17.508 8.1444 21.925 12.223 3.1097 2.8709 4.0748 4.5087 4.0748 6.9154 0 3.5744-0.2428 3.7709-2.0172 1.6329zm-37.395-66.801c-3.0715-3.0715-3.3934-7.6249-0.9676-13.688 1.9277-4.8178 4.4746-6.4911 9.8798-6.4911 3.5361 0 4.0342-0.2938 4.2955-2.533 0.1964-1.6839-0.5578-3.3345-2.25-4.9243-1.4001-1.3152-2.5455-3.4197-2.5455-4.6765 0-4.7289-7.89-9.314-22.5-13.075-7.7257-1.989-20.025-1.3238-39.475 2.135-15.44 2.7457-20.025 3.1251-20.025 1.6569 0-1.021 20.08-5.9454 35.5-8.7062 5.8574-1.0487 14.971-1.8006 22-1.8151 11.336-0.0233 12.36 0.145 18.5 3.0407 10.8 5.0933 16.558 13.1 19.54 27.171 3.4964 16.498 0.1726 22.451-13.323 23.862-5.586 0.5839-6.2362 0.4365-8.629-1.9564zm48.475-76.287c-3.5406-0.7741-7.4539-2.0734-8.6962-2.8874-2.8802-1.8871-19.591-20.613-18.959-21.245 0.2609-0.2608 3.0027 0.9723 6.093 2.7404 3.0902 1.7681 5.8793 2.954 6.1979 2.6354s0.6294-3.2092 0.6907-6.4236c0.092-4.8198-0.3732-6.5777-2.6528-10.028-1.5203-2.301-2.5136-4.1837-2.2073-4.1837s3.0476 1.84 6.0919 4.089c3.0442 2.2489 5.7546 3.8693 6.023 3.6009s-0.021-2.3789-0.6434-4.6899c-0.6223-2.311-0.9606-4.3727-0.7519-4.5815 0.2088-0.2088 2.8125 1.1877 5.7859 3.1034 6.464 4.1646 8.8275 5.0166 10.176 3.6685 0.6776-0.6776 2.5122-0.0544 5.5951 1.9007 4.5133 2.8622 7.6229 3.6441 8.5469 2.149 0.9453-1.5295-2.1754-6.8861-7.2404-12.428l-5.1931-5.6821 5.2909 2.917c6.5025 3.5848 6.791 3.5978 6.791 0.3061 0-1.5683-1.4958-4.4724-3.6706-7.1265-2.769-3.3792-3.1323-4.1914-1.4793-3.3067 1.2052 0.645 2.6034 0.9179 3.1072 0.6066 1.5169-0.9375 4.0427-6.673 4.0427-9.18 0-2.8554 0.021-2.8566 4.4428-0.2476l3.5572 2.0988v-4.5988c0-2.5294 0.2318-4.5988 0.5151-4.5988s3.0958 0.6595 6.25 1.4656 7.3099 1.7074 9.2349 2.0029 5.0297 1.4703 6.8994 2.6105l3.3993 2.0733-7.3268 7.376c-4.0298 4.0569-8.597 7.9022-10.149 8.5452-1.5524 0.643-2.8101 1.452-2.795 1.7978 0.015 0.3458 2.3957 2.6498 5.2902 5.12 6.5633 5.6011 9.1138 9.4008 11.24 16.744 2.4108 8.327 4.053 13.526 4.8765 15.437 1.0734 2.4915-2.7541 5.8276-6.684 5.8259-10.43-4e-3 -29.772-5.378-37.976-10.55-2.8294-1.7839-5.6845-3.0363-6.3448-2.7829-0.8619 0.3307-1.052 2.8397-0.6741 8.8976 0.2896 4.6404 0.3505 8.3918 0.1355 8.3366-0.2151-0.0552-3.2879-0.7338-6.8286-1.5079zm-104.69-17.786c-1.7215-0.7747-3.4666-1.9533-3.8781-2.6191-1.7153-2.7753-0.2026-13.56 2.9695-21.171 0.4916-1.1797-0.5447-3.0361-3.4613-6.2003-4.8406-5.2514-11.15-8.6159-16.157-8.6159-1.939 0-5.7344-0.6651-8.4343-1.478-12.459-3.7514-24.882-2.4848-39.038 3.9801-11.516 5.2593-24.16 15.971-32.116 27.208-2.664 3.7628-3.1749 4.0688-4.8036 2.8779-1.7251-1.2614-1.6524-1.5476 1.3579-5.3484 11.254-14.21 33.067-29.313 53.858-37.29 10.785-4.1384 28.087-0.5002 42.832 9.0066 14.736 9.5006 17.692 13.311 19.692 25.382 1.0468 6.3174 0.529 13.098-1.0759 14.09-2.1999 1.3596-8.8943 1.4608-11.746 0.1776zm77.63-55.092c-8.6601-1.9487-20.416-7.9369-21.877-11.144-0.7228-1.5864-0.7986-3.097-0.2097-4.1777 1.9422-3.5641 7.8346-8.2061 13.921-10.967l6.334-2.8731-9.5773-4.6302c-10.77-5.2067-18.896-12.034-21.688-18.221-1.5307-3.3917-30.829-35.908-31.632-35.106-0.2521 0.252 2.4561 8.4625 4.2799 12.976 0.8418 2.083-5.245-4.3346-13.88-14.635-3.1187-3.7199-5.6703-6.305-5.6703-5.7447 0 2.3 8.4439 21.176 13.613 30.431 3.0481 5.4575 9.2196 14.351 13.714 19.764 6.9017 8.3112 11.781 15.813 10.284 15.813-0.2165 0-3.9219-4.3875-8.2342-9.75s-11.606-14.25-16.207-19.75c-4.6017-5.5-11.085-14.05-14.407-19-6.0156-8.9628-16.764-29.575-16.764-32.148 0-1.6736-1.2126-1.7394-2.8-0.152-3.9287 3.9287 1.5103 17.304 15.01 36.912 3.8636 5.6118 7.6132 13.515 5.9139 12.464-0.5385-0.3328-6.9291-8.7061-14.201-18.607-7.2722-9.9012-13.365-17.86-13.539-17.685-0.1743 0.1743 2.5933 7.6998 6.1501 16.723 3.5568 9.0236 6.4669 16.617 6.4669 16.874 0 1.1321-5.3186-4.675-7.2025-7.864-4.3086-7.2935-7.0791-10.972-9.4197-12.505-2.2903-1.5007-2.4608-1.4641-3.2778 0.7025-0.6138 1.628-0.1812 4.1064 1.5037 8.6138 1.301 3.4805 2.0349 6.1688 1.6309 5.9739-0.404-0.1948-2.4165-1.2107-4.4721-2.2574s-4.06-1.5806-4.4542-1.1864c-0.3942 0.3943 1.1718 4.5249 3.4802 9.1793 2.3083 4.6543 3.9712 8.4624 3.6953 8.4624-1.1059 0-23.132-15.416-25.185-17.627-3.8274-4.1216-8.3823-11.28-11.369-17.868-3.2546-7.1779-5.8014-20.033-4.2719-21.562 0.6211-0.6211 5.0482-0.2515 12.404 1.0355 17.413 3.0468 16.716 3.4346 10.842-6.0356-11.839-19.089-17.54-38.879-13.933-48.366 0.5341-1.4048 1.2409-4.9137 1.5706-7.7977 0.3298-2.884 1.0729-5.8139 1.6514-6.511 2.0579-2.4796 5.6823-1.3786 9.5449 2.8993 11.507 12.745 15.374 16.498 21.262 20.638 3.575 2.5133 9.3842 6.9911 12.909 9.9505l6.4095 5.3809 2.5905-2.5906c2.2748-2.2748 2.5902-3.4106 2.5877-9.3178 0-6.0966-0.5625-7.9462-5.9714-19.727l-5.9684-13-0.026-16.5c-0.028-17.537 1.1671-24.671 5.9461-35.5 2.895-6.5599 17.686-31.19 20.961-34.906 1.4087-1.5981 2.5614-3.2451 2.5614-3.66s3.072-3.8447 6.8267-7.6219c11.833-11.904 27.185-17.221 46.173-15.991 15.442 1.0003 25.907 5.7059 33.406 15.021 2.8544 3.5456 3.0938 4.4352 3.0938 11.5 0 8.8125-1.925 13.179-7.452 16.904-8.9494 6.031-20.068-0.8478-20.038-12.398 0.01-2.1169 1.1453-6.2882 2.5331-9.2695 2.8938-6.2167 2.8878-6.2263-5.4906-8.7169-10.511-3.1244-22.54-0.55676-31.298 6.6805-8.9229 7.3736-22.967 31.288-27.233 46.371-6.21 21.958-5.9053 33.937 1.4521 57.086 22.615 71.159 31.893 90.78 50.635 107.09 13.957 12.144 30.401 22.021 40.567 24.366 5.9624 1.3751 15.279 1.2898 20.201-0.1849 3.9871-1.1946 13.623-9.2768 13.623-11.426 0-0.5638-2.2867-1.1061-5.0815-1.2051-6.5346-0.2312-12.261-3.1867-15.418-7.9574-2.6456-3.9979-6.9563-21.168-6.0395-24.056 0.2892-0.9114 5.8164-4.3359 12.283-7.6101 10.539-5.3365 12.342-5.9374 17.41-5.8027 12.568 0.3339 24.103 10.048 28.744 24.204 3.9562 12.07 2.1482 30.364-4.2902 43.411-7.9931 16.198-23.432 27.187-46.081 32.801-10.768 2.669-30.719 3.3695-39.526 1.3877z"/>
    </g>
</svg>
